<svg xmlns="http://www.w3.org/2000/svg" xmlns:xlink="http://www.w3.org/1999/xlink" version="1.1" id="Layer_1" x="0px" y="0px" width="100px" height="88px" viewBox="0 0 100 88" enable-background="new 0 0 100 88" xml:space="preserve">
<g>
	<g>
		<path fill-rule="evenodd" clip-rule="evenodd" fill="#FFFFFF" d="M44.734 50.734c0.516 0.5 0.8 1.2 1.6 1.4 c0.243-3.114-5.592-4.337-8.144-2.346c0.792 0.186-0.876 0.286-0.626 0.938c1.196-0.369 2.042-1.089 3.445-1.251 C42.565 49.6 43.5 50.3 44.7 50.734z M45.518 52.769c-0.38-3.723-6.229-1.813-7.517-0.156 c1.722-0.47 2.762-1.62 5.168-1.408c0.081 0.8 1.2 0.5 1.4 1.252c-0.019 0.392-0.299 0.5 0.2 0.6 C44.911 52.5 44.9 52.7 45.5 52.769z M54.601 51.83c0.947-0.652 2.702-0.676 3.759-0.782 C57.193 50.5 55 50.7 54.6 51.83z M59.77 51.674c0.554-0.085 0.4 0.6 0.9 0.5 c0.031-0.5-0.263-0.677-0.626-0.782C60.081 51.6 59.8 51.5 59.8 51.674z M55.228 68.3 c-1.157-1.675-2.747-3.426-4.881-4.067c-0.106-0.571 0.434-1.138 0.496-1.877c0.947 0.1 1.585-0.189 2.036-0.626 c-0.643-2.192-1.359-2.475-2.506-3.572c0.163-2.852-0.229-6.282 0.157-9.099c2.107 0.6 0.7 4.7 2.2 5.9 c0.376-0.197-0.087-1.233 0.313-1.407c0.276 0.1 0.3 0.7 0.6 0.313c0.075-1.066-0.112-1.87-0.314-2.659 c1.482-0.71 3.159-1.225 5.325-1.252c0.447 0 1 0.7 1.4 0.313c-0.391-0.079-0.644-0.296-0.94-0.469 c2.366-0.226 2.6 1.6 4.1 2.346c-0.559-1.11-1.457-1.882-2.506-2.503c1.302 0.4 2 1.4 3.1 1.9 c-0.768-1.37-1.955-2.321-3.915-2.502c0.117-0.297 0.468-0.109 0.157-0.471c-2.924-0.773-4.768 0.864-7.205 1.1 c-0.721-0.087-0.7-0.659-1.253-0.156c-0.1-0.735-0.786-0.884-1.253-1.252c0.107-0.466 0.19-0.957 0.626-1.095 c2.09-0.103 4.343-0.042 5.795-0.782c2.347-0.206 3.7 0.6 5.6 0.782c-0.099-1.771-4.818-0.972-5.481-2.19 c-2.16-0.28-3.129 0.63-4.072 1.564c-0.832-0.096-1.648 0.464-2.192 0.156c0.133-0.44 0.505-0.642 0.469-1.251 c-0.504-0.435-1.019-0.859-1.252-1.564c-0.275-2.309 0.788-3.281 0.626-5.476c0.071-0.169 0.16-0.336 0.253-0.5 c2.196-0.173 2.768-2.613 3.31-4.341c-1.928 0.544-3.497 2.012-3.592 4.111c-0.298 0.511-0.557 1.059-0.754 1.7 c0.75 1.62-0.569 2.943-0.626 4.694c0.337 0.8 1.2 1.1 1.6 1.876c-0.113 0.763-0.41 1.238-0.626 1.7 c-0.942 2.1-1.07 4.763-0.157 7.196c-0.002 1.312-0.374 2.7 0 3.91c1.042 0.6 1.9 1.4 2.3 2.7 c-0.463 0.198-1.645-0.035-2.036 0c-0.938 0.564-1.154 2.652-0.783 3.599c2.243-0.155 3.3 0.9 3.9 2.3 c-1.405-0.16-2.337-0.794-3.445-1.251c-2.147 0.409-3.521 0.849-5.341 1.585c0.83 0.3 1.8 0.2 2.8 0.1 C50.574 67.5 53.5 68.5 55.2 68.256z M65.564 63.719c0.429-2.542 1.087-4.858 1.409-7.509 c-0.21-0.524-0.032-2.256-0.313-2.189c-0.069 3.215-1.265 6.141-2.349 7.821c0.45-0.332 0.778-0.786 1.409-0.938 C65.571 61.7 65 63.2 65.6 63.719z M65.564 63.876c-0.352 1.115-0.324 2.974-0.94 4.2 c-0.146-0.727 0.61-1.363 0.157-1.878c-0.329 0.688-0.064 2.72-0.47 2.034c-0.024 1.594-0.874 3.193-0.94 4.2 C64.597 70.2 65.6 66.9 65.6 63.876z M50.529 78.737c2.798-0.699 5.868-1.127 7.674-2.815 c-1.628 0.231-2.214 1.254-3.153 1.356c-1.887 0.393-4.256 0.682-5.304-0.262c0.332-1.374 0.057-2.936 0-4.38 c0.957 0.1 1.503-0.61 2.349-0.156c0.131-0.458-0.933-0.509-0.47-0.783c0.313 0.1 1.5 0.5 1.566-0.156 c-0.709-0.799-2.544 0.209-3.132-0.469V69.82c1.559-0.267 3.25-0.404 4.229-1.252c-1.533 0.398-3.026 0.837-4.855 0.9 c-0.15 0.736-0.521 1.252-0.627 2.033c1.282 1.873-1.114 5.4 0.6 6.57c-0.225 0.193-0.297 0.538-0.313 0.9 c-0.337 2.6 0.3 4.5 0.8 6.101c0.311 1.1 0.3 2 0.9 2.659C50.424 85.2 48.7 80.1 50.5 78.737z M37.519 32.356c0.735-1.027-0.758-2.025-1.399-2.576C35.525 30.4 36.3 32.9 37.5 32.356z M37.806 29.9 c-0.308-0.909-0.69-1.656-1.141-2.253C36.188 28.1 36.6 30.5 37.8 29.86z M37.425 27.4 c0.274 0.1 0.5 0.4 0.9 0.099c0.138-0.479-0.484-1.304-0.373-1.795C37.445 25.7 37.2 26.7 37.4 27.42z M38.581 33.387c0.865 0.9 2.136-0.347 2.802-0.867C40.868 31.8 38.3 32.1 38.6 33.387z M38.537 31.7 c0.94-0.2 1.728-0.492 2.374-0.869C40.495 30.4 38 30.5 38.5 31.749z M38.709 29.92c0.495-0.063 1.008-0.959 1.503-1.053 c-0.226-0.488-1.216-0.354-1.78 0.159C38.438 29.3 38.2 29.6 38.7 29.92z M69.381 52.3 c-0.395-0.667-1.058-2.175-2.104-1.677C66.64 51.6 68.7 52.8 69.4 52.339z M71.435 52.2 c-0.467-0.503-1.081-0.967-1.854-1.392C68.808 51.8 70.9 52.6 71.4 52.196z M73.35 51.3 c-0.462 0.021-1.108-0.673-1.563-0.626c-0.375 0.377-0.117 0.591-0.061 0.855C72.338 51.9 73.3 51.8 73.3 51.311z M67.788 47.481c-0.578 0.518-1.93 1.462-1.235 2.39C67.64 50.3 68.3 48.1 67.8 47.481z M69.158 47.8 c-0.445 0.522-0.836 1.186-1.168 2.002C69.132 50.5 69.6 48.4 69.2 47.839z M70.865 48.8 c-0.164 0.432-1.058 0.75-1.193 1.187c0.197 0.5 0.5 0.3 0.8 0.394C70.99 49.9 71.3 49.1 70.9 48.793z M29.529 39.125c0.341 1 0.8 3.1 2.3 2.744C32.927 40.8 30.5 38.7 29.5 39.125z M27.202 39 c0.478 0.8 1.2 1.5 2.1 2.306C30.528 40.2 28 38.7 27.2 39.019z M27.613 40.2 c-0.71-0.605-1.926-0.731-2.182-0.126c0.609 0.1 1.3 1.2 1.9 1.229C27.898 40.9 27.6 40.6 27.6 40.237z M32.133 42.983c-1.308-0.85-2.818 1.894-2.244 2.797C30.781 45.3 32.8 44.4 32.1 42.983z M30.575 42.6 c-1.236-1.133-2.467 1.599-2.053 2.308C29.241 44.3 29.9 43.6 30.6 42.592z M29.09 42 c-0.146-0.693-0.573-0.562-0.912-0.692c-0.827 0.434-1.395 1.515-0.928 1.977C27.565 42.8 28.8 42.6 29.1 42.042z M44.294 28.306c1.135-0.058 0.85-2.32 0.124-2.607C44.118 26.4 43.3 27.8 44.3 28.306z M43.017 24.7 c-0.189 0.638-0.275 1.38-0.248 2.234C43.98 27.1 43.6 25 43 24.707z M47.123 27.2 c-0.997 0.584-1.758 2.039-1.491 3.476C46.868 30.3 47.5 28.7 47.1 27.184z M42.146 25.8 c-0.017-0.679-0.542-1.397-0.994-1.241c0.245 0.375-0.016 1.3 0.2 1.614C41.9 26.3 42 26 42.1 25.813z M42.168 31.049c0.718 0.2 2.2 0.9 2.608-0.149C44.6 29.8 42.4 30.3 42.2 31.049z M41.532 29.1 c0.657 0.1 1.4 0.1 2.25-0.014C43.795 27.9 41.7 28.6 41.5 29.146z M40.839 27.6 c0.442-0.077 1.1 0.5 1.6 0.41c0.315-0.408 0.041-0.583-0.048-0.832C41.743 27 40.9 27.2 40.8 27.638z M48.943 29.537c-1.032 1.038-1.974 2.166-2.486 3.724C48.292 33.1 49.7 31.2 48.9 29.537z M51.925 31.8 c-2.182 0.43-3.727 2.148-4.225 3.848C50.179 35.4 51.4 34 51.9 31.771z M42.897 32.9 c0.18 1.3 2.7 1 2.859-0.125C45.175 32 43.4 32.2 42.9 32.889z M47.123 34.5 c-1.207-0.655-2.726-0.17-3.728 0.373C44.176 36.3 46.3 35.8 47.1 34.526z M44.846 37.3 c0.326 1.7 3.6 1.6 4.6 0.496C48.634 35.9 45.9 36.4 44.8 37.263z M50.47 27.6 c-0.831 0.676-0.263 3.8 1.2 3.36C52.785 29.9 51.2 28.4 50.5 27.617z M52.989 27.8 c-0.32-1.129-0.741-2.065-1.255-2.822C51.123 25.5 51.5 28.5 53 27.769z M53.267 24.9 c0.328 0.2 0.5 0.6 1.1 0.177c0.197-0.576-0.511-1.622-0.346-2.215C53.394 22.9 53 24 53.3 24.939z M55.945 30.554c-0.585-0.896-3.711-0.654-3.476 0.887C53.469 32.6 55.1 31.1 55.9 30.554z M52.985 29.7 c1.16-0.186 2.14-0.494 2.952-0.916C55.462 28.1 52.5 28.1 53 29.717z M54.151 27.5 c0.608-0.046 1.289-1.109 1.9-1.193c-0.245-0.61-1.463-0.507-2.185 0.085C53.855 26.8 53.6 27.1 54.2 27.506z M66.243 47.103c1.969-0.169 1.643-2.958 1.647-4.28C66.521 42.8 64.5 46.2 66.2 47.103z M69.235 45.5 c0.649-1.355 1.038-2.609 1.186-3.77C69.368 41.8 67.2 44.9 69.2 45.55z M70.779 43.1 c0.183 0.4 0 1 0.9 1.126c0.677-0.386 0.883-1.988 1.543-2.419C72.641 41.2 71.3 42 70.8 43.07z M67.963 46.693c1.271 0.8 2.5 1.3 3.6 1.613C71.683 47.3 68.8 44.7 68 46.693z M70.961 44.5 c-0.317 0.337-0.882 0.423-0.666 1.303c0.624 0.5 2.2 0 2.8 0.46C73.412 45.5 72.2 44.5 71 44.48z M74.931 43.687c0.209-0.564-0.672-1.208-1.52-1.223c-0.229 0.242-0.631 0.31-0.487 0.9 C73.362 43.7 74.5 43.4 74.9 43.687z M30.133 50.328c1.004 0.3 3.209-1.833 2.064-2.847 C30.705 47.2 30.4 49.4 30.1 50.328z M29.674 48.044c-0.748 0.875-1.283 1.729-1.621 2.6 C28.835 50.8 31.1 48.9 29.7 48.044z M27.5 48.888c-0.578 0.153-1.045 1.299-1.62 1.5 c0.344 0.5 1.5 0.2 2.091-0.472C27.918 49.6 28.1 49.2 27.5 48.888z M31.008 47.4 c-0.784-0.844-1.569-1.475-2.356-1.906C28.364 46.3 30 48.7 31 47.448z M28.936 47.7 c-0.37-0.471-1.609-0.446-2.01-0.899c-0.365 0.5 0.4 1.5 1.3 1.734C28.486 48.3 28.9 48.4 28.9 47.662z M25.972 49.509c0.217-0.135 0.528-0.105 0.544-0.594c-0.261-0.326-1.146-0.298-1.429-0.611 C24.821 48.7 25.3 49.3 26 49.509z M33.167 33.51c-0.032-0.982-1.427-0.893-2.085-0.931 C31.019 33.3 32.7 34.4 33.2 33.51z M32.272 31.503c-0.657-0.358-1.27-0.583-1.843-0.687 C30.407 31.3 31.9 32.5 32.3 31.503z M34.228 34.846c-1.017-0.773-2.453-0.754-3.303-0.207 C31.99 35.6 33.5 35.7 34.2 34.846z M30.529 28.853c-0.3 0.3 0.1 1 0.6 1.3 c0.216-0.081 0.5 0 0.584-0.434C31.517 29.3 30.7 29.2 30.5 28.853z M34.323 34 c0.982 0.1 1.038-1.325 1.144-1.974C34.799 31.9 33.5 33.4 34.3 33.995z M33.158 32.4 c0.432-0.609 0.728-1.192 0.897-1.749C33.539 30.5 32.2 31.9 33.2 32.372z M32.039 30.5 c0.159 0.2 0.2 0.4 0.6 0.364c0.249-0.297 0.069-1.08 0.302-1.395C32.586 29.3 32.1 29.9 32 30.494z M31.141 36.675c1.453 1.3 3.5 1.4 4.5 0.282C34.258 35.9 32.3 35.9 31.1 36.675z M35.775 35.8 c1.338 0.1 1.416-1.807 1.561-2.692C36.424 32.9 34.7 35 35.8 35.796z M36.701 38.1 c-1.935-0.293-3.643 0.103-5.304 0.642C32.724 40.4 35.5 40 36.7 38.108z M38.104 40.2 c-1.091-1.066-4.364-0.181-4.905 1.866C34.946 43.5 37.7 42.7 38.1 40.241z M36.995 37.6 c1.242 0.4 2.984-2.068 1.667-2.972C37.653 34.8 36.5 36.6 37 37.631z M38.317 39.4 c1.769-0.166 3.517-2.157 2.399-3.763C39.6 36.4 38.3 37.7 38.3 39.373z M43.185 36.3 c-1.01 0.264-2.459 1.795-1.659 3.086C42.625 39.2 44.1 37.2 43.2 36.292z M61.244 32.3 c0.875-0.479 0.156-1.702-0.11-2.314C60.489 30.3 60.2 32.3 61.2 32.316z M62.435 28.6 c-0.483 0.219-0.854 2.1 0.2 1.983C62.68 29.8 62.6 29.2 62.4 28.605z M60.517 33.9 c0.236-1.275-0.438-2.566-1.324-3.085C58.846 32.2 59.4 33.6 60.5 33.888z M64.042 29.2 c0.235-0.316 0.003-1.099 0.221-1.433c-0.402-0.139-0.867 0.5-0.883 1.102C63.553 29.1 63.6 29.3 64 29.229z M61.333 33.585c0.385 0.9 1.7 0.3 2.3 0.132C63.463 33.1 61.5 32.6 61.3 33.585z M62.272 31.8 c0.75 0.1 1.4 0.1 2 0.012C64.108 31.3 62.3 30.7 62.3 31.788z M63.423 30.7 c0.384 0.1 1.012-0.432 1.404-0.363c-0.031-0.423-0.802-0.598-1.362-0.374C63.387 30.1 63.1 30.3 63.4 30.652z M59.669 35.566c-0.454-1.383-1.291-2.384-2.206-3.306C56.798 33.7 58 35.4 59.7 35.566z M55.16 33.9 c0.429 2 1.6 3.2 3.8 3.416C58.469 35.8 57.1 34.3 55.2 33.899z M63.058 35.1 c-0.457-0.611-2.021-0.75-2.536-0.11C60.681 36 62.9 36.3 63.1 35.121z M59.423 36.9 c0.704 1.1 2.6 1.6 3.3 0.331C61.842 36.8 60.5 36.4 59.4 36.932z M62.524 39.2 c-0.924-0.8-3.361-1.185-4.08 0.441C59.337 40.6 62.2 40.7 62.5 39.184z M53.458 36.2 c0.181 1.4 2 3.6 3.8 2.909C57.209 37.7 54.8 35.3 53.5 36.227z M47.689 47.1 c-0.097-1.343-2.102-1.867-3.127-1.026C45.503 46.5 46.4 47.3 47.7 47.097z M33.388 43.6 c-1.094 0.402-2.426 2.373-1.726 3.511C32.814 46.8 35.2 45 33.4 43.64z M67.715 41.7 c-0.317-1.01-1.943-2.402-3.214-1.528C64.729 41.3 66.8 42.7 67.7 41.709z M69.14 35.8 c0.626 1.4 3.396-0.037 3.413-1.107C71.519 34.6 69.4 34.2 69.1 35.754z M72.723 32.5 c-0.913 0.067-1.908 0.317-2.994 0.767C70.119 34.9 72.7 33.3 72.7 32.489z M72.617 37.8 c-1.236-0.996-3.477-1.265-5.193-0.225C68.469 39 70.8 39.1 72.6 37.809z M70.449 31.3 c0.079 0.7 0.5 0.6 0.8 0.776c0.865-0.352 1.534-1.374 1.113-1.879C72.039 30.7 70.8 30.8 70.4 31.323z M65.956 32.964c0.058 1.032-0.086 3.2 1.5 3.274C68.771 35.5 67 32.9 66 32.964z M67.171 31.8 c0.173 0.9 0.5 1.9 1.1 2.881C69.858 34.1 68 31.8 67.2 31.831z M68.646 30.2 c0.313 0.531-0.099 1.7 0.2 2.229c0.679 0.2 0.77-0.231 1.046-0.465C69.952 31 69.3 30 68.6 30.198z M70 30.4 c0.479 0.1 0.548-0.172 0.747-0.341c0.023-0.662-0.443-1.375-0.893-1.235C70.07 29.2 69.8 30 70 30.39z M71.927 40 c-1.837-0.819-3.744-1.48-5.997-1.38C67.063 40.9 70.2 41.8 71.9 40.042z M65.795 38.2 c0.645-1.094-0.414-3.281-1.549-3.607C62.629 35.5 64.3 38.5 65.8 38.192z M64.048 39.6 c0.282-0.562 0.079-1.83-0.616-2.021C63.114 38.1 62.8 39.7 64 39.597z M65.478 43.7 c0.036-1.141-0.694-2.754-1.806-2.865C62.613 42 64.3 43.5 65.5 43.707z M68.876 62.9 c-0.452 0.678-1.265 1.229-1.218 2.298C68.801 65.3 69.5 63.8 68.9 62.861z M67.395 61.7 c-0.252 0.774-0.887 1.523-0.554 2.541C67.972 64 68.2 62.4 67.4 61.651z M56.876 32.3 c0.568-0.595 0.798-2.259 0-2.762C56.261 30.2 55.3 32 56.9 32.323z M67.698 65.9 c-0.115 1.2 1.6 1.3 2.4 0.884C69.618 66.1 68.4 65.4 67.7 65.891z M22.406 57.9 c-0.528 0.01-0.807 0.27-0.889 0.726C22.071 59 22.6 58.3 22.4 57.903z M26.013 84.5 c0.554 0.4 1.078-0.337 0.889-0.727C26.374 83.8 26.1 84.1 26 84.546z M81.802 44.3 c-0.528 0.01-0.807 0.27-0.889 0.726C81.467 45.4 82 44.7 81.8 44.299z M71.362 65.3 c0.554 0.4 1.078-0.337 0.888-0.726C71.722 64.6 71.4 64.9 71.4 65.318z M41.199 6.2 c0.045-0.47-0.973-1.458-1.464-0.866C39.914 5.8 40.6 6.9 41.2 6.249z M40.035 6.978c0.323 0.4 1.2 1.1 1.5 0.3 C41.421 6.8 40.4 6.8 40 6.978z M40.556 8.371c0.562 0.7 1.5 0.5 2 0.1 C41.987 7.9 41.1 7.8 40.6 8.371z M42.159 7.028c0.328-0.276 0.489-1.088 0.265-1.371 C42.152 6 41.5 6.7 42.2 7.028z M41.879 9.725c0.56 0.5 1.7 0.3 1.972-0.531 C43.226 8.7 42.3 9.2 41.9 9.725z M43.265 8.148c0.445-0.362 0.447-1.231 0.056-1.486 C42.86 6.9 42.4 8 43.3 8.148z M43.092 11.088c0.853 0 1.9 0.4 2.066-0.829 C44.05 9.7 43.4 10.1 43.1 11.088z M44.495 9.232c0.497-0.381 0.516-1.376 0.413-1.838 C43.899 7.1 43.7 9 44.5 9.232z M45.952 10.344c0.638-0.593 0.203-1.566-0.382-1.922 C44.864 9.1 45.4 10 46 10.344z M44.698 12.247c0.938 0.4 1.803-0.453 1.711-1.267 C45.585 10.8 44.6 11.5 44.7 12.247z M47.997 11.148c0.458-1.071 0.022-1.676-0.633-2.166 C46.717 9.7 47.1 10.8 48 11.148z M48.604 11.831c-1.167-0.417-2.411 0.531-2.103 1.5 C47.5 13.4 48.3 13 48.6 11.831z M50.183 11.505c0.321-0.917-0.19-1.398-1.12-1.662 C48.823 10.7 49.2 11.3 50.2 11.505z M50.145 12.149c-0.864-0.14-1.436 0.28-1.71 1.3 C49.568 13.8 50.4 13 50.1 12.149z M84.716 78.703c0.02 0.3 0.9 1 1.2 0.5 C85.705 78.9 85.1 78.2 84.7 78.703z M85.617 78.079c-0.238-0.279-0.861-0.819-1.13-0.254 C84.596 78.2 85.4 78.2 85.6 78.079z M85.234 77.052c-0.414-0.514-1.077-0.355-1.492-0.064 C84.18 77.4 84.9 77.5 85.2 77.052z M83.543 79.544c0.376-0.295 1.22-0.999 0.582-1.53 C83.691 78.3 83.3 79.2 83.5 79.544z M82.911 76.424c0.383 0.3 0.9 0 1.212-0.325 C83.779 75.8 83.1 75.9 82.9 76.424z M1.963 62.745c-0.38-0.227-1.626 0.24-1.32 0.9 C1.048 63.6 2.3 63.5 2 62.745z M1.978 64.138c0.464-0.053 1.478-0.324 1.073-1.009 C2.541 63 2 63.7 2 64.138z M3.334 64.465c0.837-0.068 1.141-0.879 1.13-1.522 C3.711 63.1 3.2 63.8 3.3 64.465z M1.911 60.913c0.044 0.6 0.2 2 1.2 1.7 C3.151 62 2.4 61 1.9 60.913z M5.65 62.469c-0.586 0.191-0.681 0.963-0.52 1.5 C5.699 63.8 6.1 63 5.7 62.469z M3.57 61.623c-0.046 0.5 0.6 1.4 1.1 0.8 C4.648 61.9 4 61.5 3.6 61.623z M5.957 62.068c-0.03-0.487-0.666-0.936-1.009-1.072 C4.321 61.5 5.5 62.5 6 62.068z M76.047 33.98c0.386 0.7 1.272-0.166 1.517-0.488 C77.237 32.8 76.1 33.5 76 33.98z M75.68 35.073c0.29 0.7 1.1 0.1 1.456-0.223 C76.819 34.6 75.9 34.6 75.7 35.073z M76.559 36.119c-0.443-0.561-1.307-0.542-1.897-0.048 C75.161 36.5 76 36.7 76.6 36.119z M75.236 34.802c0.856-0.617-0.152-1.584-0.603-1.992 C74.345 33.3 74.7 34.4 75.2 34.802z M75.064 37.23c-0.328-0.46-0.996-0.862-1.508-0.519 C73.73 37.4 74.6 37.6 75.1 37.23z M74.172 34.554c-0.383 0.213-0.438 1.025-0.044 1.4 C74.901 35.9 74.6 34.8 74.2 34.554z M72.829 35.252c-0.104 0.354-0.143 1.1 0.2 1.5 C73.706 36.6 73.6 35.1 72.8 35.252z M10.842 23.605c-0.221-0.384-1.537-0.582-1.588 0.1 C9.604 23.9 10.8 24.4 10.8 23.605z M10.176 24.829c0.431 0.2 1.4 0.4 1.429-0.358 C11.247 24.1 10.4 24.5 10.2 24.829z M11.2 25.774c0.765 0.3 1.426-0.212 1.73-0.779 C12.195 24.8 11.4 25.1 11.2 25.774z M11.907 24.049c0.347-0.535 0.226-1.764-0.217-2.069 C11.435 22.5 10.9 23.8 11.9 24.049z M13.374 24.676c0.221-0.491-0.145-1.22-0.581-1.267 C12.515 23.8 12.6 24.9 13.4 24.676z M14.66 24.959c0.211-0.44-0.125-1.141-0.358-1.427 C13.497 23.7 14 25.1 14.7 24.959z M7.053 39.472c-0.429-0.11-1.492 0.689-1.014 1.2 C6.43 40.6 7.5 40.1 7.1 39.472z M7.461 40.804c0.431-0.181 1.326-0.728 0.744-1.27 C7.666 39.5 7.4 40.4 7.5 40.804z M8.855 40.736c0.784-0.302 0.846-1.166 0.654-1.78 C8.833 39.3 8.5 40.1 8.9 40.736z M8.116 39.024c-0.14-0.623-1.104-1.396-1.632-1.294 C6.699 38.3 7.2 39.6 8.1 39.024z M9.59 38.415c-0.196-0.501-0.973-0.749-1.312-0.472 C8.373 38.4 9.2 39.1 9.6 38.415z M10.694 37.697c-0.167-0.459-0.903-0.71-1.271-0.744 C8.97 37.6 10.3 38.3 10.7 37.697z M87.103 49.78c0.072-0.398 0.096-1.621-0.666-1.446 C86.15 48.7 86.4 50 87.1 49.78z M87.814 48.547c0.024-0.467-0.078-1.51-0.819-1.223 C86.734 47.8 87.4 48.5 87.8 48.547z M87.042 45.9c0.035 0.8 0.6 1.4 1.3 1.4 C88.429 46.4 87.7 46 87 45.9z M86.495 47.183c-0.621-0.146-1.738 0.384-1.877 0.9 C85.223 48.1 86.6 48.2 86.5 47.183z M85.592 46.565c0.476 0.1 1.45-0.341 0.998-0.974 C86.053 45.6 85.5 46.1 85.6 46.565z M85.198 45.106c0.419 0.7 1.58-0.26 1.225-0.819 C85.937 44.2 85.4 44.8 85.2 45.106z M79.876 46.511c-0.176 0.8 1.1 0.7 1.4 0.7 C81.52 46.5 80.2 46.2 79.9 46.511z M80.089 47.888c-0.073-0.387-0.75-1.079-1.224-0.818 C78.578 47.8 79.6 47.9 80.1 47.888z M78.806 48.433c0.053-0.713-0.597-1.281-1.366-1.317 C77.535 47.8 78 48.5 78.8 48.433z M79.627 44.695c-0.52 0.139-1.05 1.254-0.903 1.9 C79.771 46.7 79.7 45.3 79.6 44.695z M78.105 45.668c-0.426-0.102-1.017 0.46-0.975 1 C77.765 47.1 78.2 46.1 78.1 45.668z M76.645 45.274c-0.317 0.191-0.87 0.737-0.82 1.2 C76.385 46.9 77.3 45.7 76.6 45.274z M36.279 8.827c-0.364-0.253-1.639 0.126-1.38 0.8 C35.303 9.7 36.5 9.6 36.3 8.827z M36.196 10.217c0.467-0.019 1.497-0.219 1.141-0.93 C36.841 9.1 36.2 9.8 36.2 10.217z M38.761 9.199c-0.763 0.108-1.355 0.736-1.236 1.4 C38.366 10.6 38.7 9.8 38.8 9.199z M37.432 8.777c0.086-0.632-0.546-1.693-1.077-1.782 C36.357 7.6 36.4 9 37.4 8.777z M39.353 10.275c0.577-0.102 0.987-0.905 0.625-1.466 C39.378 9 39.2 9.7 39.4 10.275z M39.026 8.721c-0.009-0.538-0.65-1.042-1.064-0.9 C37.882 8.3 38.4 9.2 39 8.721z M40.311 8.432c0.004-0.488-0.598-0.98-0.932-1.14 C38.717 7.8 39.8 8.8 40.3 8.432z M78.865 12.362c0.436-0.081 1.063-1.253 0.402-1.542 C78.959 11.1 78.2 12 78.9 12.362z M77.794 12.791c0.501-0.203 0.394-1.163 0.141-1.465 C77.619 11.7 77 12.5 77.8 12.791z M76.699 11.973c-0.584 0.604-0.276 1.4 0.2 1.9 C77.314 13.2 77.3 12.4 76.7 11.973z M80.116 13.703c-0.433-0.425-1.458-1.375-2.025-0.487 C78.479 13.7 79.7 14 80.1 13.703z M76.278 15.001c0.313-0.531-0.125-1.174-0.605-1.474 C75.341 14 75.6 14.9 76.3 15.001z M78.399 14.265c-0.289-0.397-1.339-0.653-1.39 0.1 C77.399 14.8 78.2 14.7 78.4 14.265z M76.312 15.504c0.345 0.3 1.1 0.3 1.5 0.1 C77.901 14.8 76.4 14.8 76.3 15.504z M26.361 42.877c0.059-0.596 0.152-1.966-0.949-1.695 C25.259 41.8 25.8 42.8 26.4 42.877z M23.741 41.32c-0.003 0.5 0.6 1 1 0.9 C24.799 41.7 24.3 40.9 23.7 41.32z M22.537 41.562c-0.016 0.5 0.5 0.9 0.8 1.1 C24.009 42.2 23 41.2 22.5 41.562z M22.496 42.542c-0.027-0.689-0.792-0.823-1.26-0.676 C21.275 42.5 22 42.7 22.5 42.542z M19.837 42.644c0.391 0.8 0.9 0.8 1.5 0.6 C21.249 42.6 20.4 42.3 19.8 42.644z M20.079 43.847c-0.381-0.54-0.871-0.566-1.455-0.14 C18.992 44.3 19.5 44.2 20.1 43.847z M74.2 72.362c-0.015-0.306-0.405-0.749-0.663-0.745 C73.591 71.9 73.7 72.6 74.2 72.362z M74.304 71.709c0.008 0.4 0.6 1 1 0.6 C75.182 71.8 74.6 71.5 74.3 71.709z M75.336 71.091c-0.448 0.5 0.5 1.1 0.9 0.8 C76.163 71.5 75.6 71.2 75.3 71.091z M76.093 71.021c0.144 0.6 0.8 0.5 1.2 0.3 C77.118 70.8 76.5 70.8 76.1 71.021z M78.294 70.472c-0.459-0.56-0.917-0.494-1.376-0.274 C77.124 70.8 77.9 70.9 78.3 70.472z M79.119 69.373c-0.412-0.441-0.825-0.299-1.238 0.1 C78.294 69.9 78.7 69.8 79.1 69.373z M61.407 82.814c0.307-0.142 1.154-0.712 0.67-1.147 C61.708 81.6 60.9 82.4 61.4 82.814z M63.033 81.563c-0.448 0.05-0.577 0.846-0.441 1.1 C62.922 82.5 63.6 81.9 63 81.563z M63.729 82.466c0.604-0.354 0.54-1.073 0.3-1.552 C63.521 81.3 63.4 82 63.7 82.466z M64.749 80.13c-0.371 0.355-0.164 1 0.2 1.3 C65.278 81.1 65.2 80.4 64.7 80.13z M65.561 79.391c-0.445 0.662-0.24 1.1 0.3 1.4 C66.003 80.3 66.3 79.6 65.6 79.391z M65.929 78.328c-0.225 0.6 0.2 1.5 0.8 1.5 C67.149 79.1 66.6 78.4 65.9 78.328z M66.703 77.092c-0.47 0.9 0.1 2 0.9 1.8 C67.809 78.2 67.6 77.5 66.7 77.092z M67.139 75.905c-0.213 0.7 0.1 1.2 0.8 1.5 C68.401 76.6 67.9 75.8 67.1 75.905z M28.065 65.283c-0.368 0.043-0.955 0.982-0.42 1.3 C27.916 66.3 28.6 65.6 28.1 65.283z M28.979 64.985c-0.429 0.141-0.391 0.945-0.197 1.2 C29.063 65.9 29.6 65.2 29 64.985z M29.821 64.146c-0.416 0.489-0.439 1.2 0 1.6 C30.365 65.3 30.2 64.6 29.8 64.146z M30.786 64.491c0.305-0.382 0.115-1.11-0.42-1.26 C30.075 63.7 30.4 64.2 30.8 64.491z M31.626 63.651c-0.008-0.556 0.18-1.229-0.618-1.31 C30.708 63.1 31 63.5 31.6 63.651z M31.151 61.226c-0.09 0.7 0.5 1.4 1.1 1.3 C32.511 61.8 31.8 61.1 31.2 61.226z M32.938 61.475c0.017-0.805-0.301-1.41-1.283-1.616 C31.375 60.8 32.2 61.8 32.9 61.475z M32.938 59.919c0.271-0.929-0.395-1.537-1.1-1.312 C31.767 59.3 32.1 59.7 32.9 59.919z M31.803 65.7c0.114-0.363 0.382-0.764-0.122-0.987 C31.326 65.1 31.4 65.4 31.8 65.7z M32.451 65.107c0.336-0.446 0.014-1.025-0.436-1.092 C31.813 64.4 32 65 32.5 65.107z M33.129 64.562c0.184-0.522 0.107-0.986-0.49-1.332 C32.25 63.8 32.6 64.6 33.1 64.562z M33.027 62.452c-0.197 0.441-0.053 0.8 0.4 1.1 C33.84 63 33.5 62.5 33 62.452z M73.849 75.714c-0.377-0.054-1.21 0.727-0.752 1.1 C73.421 76.7 74.3 76.2 73.8 75.714z M74.321 76.813c0.351-0.194 1.063-0.745 0.517-1.153 C74.374 75.7 74.2 76.5 74.3 76.813z M75.504 76.626c0.641-0.331 0.613-1.074 0.393-1.58 C75.354 75.4 75.1 76.1 75.5 76.626z M76.766 75.644c0.404-0.3 0.408-1.074-0.086-1.365 C76.278 74.6 76.5 75.3 76.8 75.644z M77.555 73.563c-0.493 0.657-0.307 1.1 0.3 1.5 C77.964 74.5 78.3 73.9 77.6 73.563z M78.194 72.837c-0.215 0.5 0.1 1.2 0.6 1.3 C79.176 73.6 78.7 72.9 78.2 72.837z M79.047 71.51c-0.43 0.7 0 1.7 0.7 1.6 C79.922 72.4 79.8 71.9 79 71.51z M80.068 71.833c0.417-0.69 0.011-1.324-0.605-1.292 C79.255 71.1 79.5 71.5 80.1 71.833z M80.677 70.524c0.419-0.715-0.065-1.421-0.592-1.777 C79.789 69.4 80 70.3 80.7 70.524z M81.298 68.795c0.208-0.539-0.264-1.295-0.923-1.273 C80.198 68.1 80.8 68.6 81.3 68.795z M79.815 68.279c-0.46-0.265-1.214 0.019-1.304 0.4 C78.881 69 79.9 69 79.8 68.279z M80.785 66.288c-0.075 0.9 0.4 1.3 1.2 1.3 C81.743 66.9 81.7 66.1 80.8 66.288z M80.226 67.047c-0.411-0.253-1.135 0.006-1.439 0.2 C78.856 68.1 80.3 67.7 80.2 67.047z M79.346 66.495c0.647 0.3 1.172-0.295 1.282-0.802 C80.024 65.4 79.4 66 79.3 66.495z M80.437 62.801c-0.529 0.014-0.676 0.366-0.63 0.9 C80.299 63.6 80.5 63.3 80.4 62.801z M44.821 14.276c0.378 0.1 1.109-0.126 1.229-0.441 C45.676 13.8 44.8 13.6 44.8 14.276z M44.426 15.622c0.551 0.1 1.198-0.449 1.139-0.901 C45.086 14.5 44 14.9 44.4 15.622z M45.813 16.274c-0.356-0.774-1.664 0.1-1.355 0.7 C44.956 17.1 45.6 16.6 45.8 16.274z M45.528 17.226c-0.762-0.104-1.059 0.709-0.988 1.3 C45.245 18.6 45.6 17.8 45.5 17.226z M45.123 20.166c0.906-0.283 1.05-0.872 1.006-1.536 C45.347 18.6 44.9 19.5 45.1 20.166z M46.058 21.703c0.737-0.286 0.765-0.856 0.437-1.569 C45.826 20.4 45.7 21 46.1 21.703z M39.892 10.746c-0.001 0.5 0.2 1.8 1 1.5 C41.166 11.8 40.6 10.4 39.9 10.746z M39.35 12.252c0.064 0.5 0.4 1.7 1.1 1.2 C40.693 12.9 39.8 12.3 39.4 12.252z M39 13.778c0.09 0.9 1 1.3 1.7 1.248C40.538 14.2 39.8 13.6 39 13.778z M39.579 15.788c0.168 0.6 1.1 1 1.7 0.562C41.057 15.7 40.2 15.6 39.6 15.788z M39.81 17.4 c0.607 0.4 1.2 1.2 1.9 0.388C41.167 16.8 40.5 16.8 39.8 17.373z M40.429 19 c0.504 0.7 1.5 0.5 1.866-0.104C41.769 18.4 40.7 18.4 40.4 18.996z M41.24 20.6 c0.694 0.5 1.4 0.7 2.253-0.066C42.839 19.7 41.5 19.8 41.2 20.639z M42.603 21.7 c0.636 0.8 1.6 0.7 1.866-0.105C43.903 21 43.3 21.1 42.6 21.654z M46.346 23.2 c-0.705-0.701-1.815-0.823-2.449-0.15C44.562 23.9 45.7 23.6 46.3 23.18z M45.697 24.627c0.554 0.5 1.7 0.3 2-0.499 C47.074 23.6 46.2 24.1 45.7 24.627z M47.146 21.283c-0.562 0.294-1.084 1.588-0.1 1.8 C47.594 22.7 47.6 21.6 47.1 21.283z M48.346 24.179c0.508-0.375 0.546-1.379 0.45-1.848 C47.783 22 47.5 24 48.3 24.179z M71.118 63.727c0.377 0.1 1.2 0.1 1.197-0.52 C71.93 63.1 71.2 63.4 71.1 63.727z M72.623 61.839c-0.557-0.065-1.167 0.525-1.078 1 C72.034 63 73.1 62.5 72.6 61.839z M71.196 61.276c0.406 0.7 1.654-0.205 1.307-0.802 C71.999 60.4 71.4 61 71.2 61.276z M71.421 60.309c0.767 0.1 1.011-0.775 0.904-1.313 C71.617 59 71.3 59.8 71.4 60.309z M70.73 58.946c0.781-0.026 1.215-0.905 0.905-1.598 C70.75 57.7 70.6 58.3 70.7 58.946z M70.604 55.875c-0.718 0.332-0.708 0.903-0.336 1.6 C70.915 57.1 71 56.6 70.6 55.875z M77.462 66.413c-0.028-0.454-0.333-1.796-1.116-1.399 C76.124 65.5 76.8 66.8 77.5 66.413z M76.682 63.763c-0.155 0.6 0.8 1.1 1.2 1.1 C77.808 64.4 77.4 63.2 76.7 63.763z M76.35 62.195c0.246 0.8 1 1.4 1.8 1.1 C78.006 62.4 77.1 62.1 76.3 62.195z M77.45 61.36c-0.21-0.624-1.172-0.946-1.736-0.45 C75.98 61.5 76.9 61.6 77.5 61.36z M77.116 59.795c-0.635-0.399-1.258-1.105-1.937-0.265 C75.797 60.4 76.4 60.4 77.1 59.795z M74.538 58.438c0.56 0.5 1.6 0.4 1.857-0.224 C75.844 57.5 74.8 57.8 74.5 58.438z M75.479 56.627c-0.726-0.495-1.471-0.565-2.243 0.2 C73.944 57.7 75.3 57.5 75.5 56.627z M74.054 55.701c-0.689-0.8-1.644-0.555-1.855 0.2 C72.797 56.4 73.4 56.3 74.1 55.701z M70.22 54.42c0.749 0.7 1.9 0.7 2.454-0.008 C71.955 53.6 70.9 53.9 70.2 54.42z M70.774 52.934c-0.587-0.479-1.721-0.201-1.963 0.6 C69.465 54 70.3 53.5 70.8 52.934z M69.543 56.364c0.543-0.33 0.979-1.654-0.016-1.8 C69.009 55 69.1 56.1 69.5 56.364z M67.83 55.424c1.03 0.2 1.171-1.703 0.33-1.873 C67.677 54 67.7 55 67.8 55.424z M26.99 73.666c-0.664-0.095-0.557 0.951-0.465 1.3 C27.133 75.1 27.3 73.9 27 73.666z M26.44 72.843c-0.655-0.192-0.668 0.708-0.614 1.1 C26.152 73.9 26.7 73.2 26.4 72.843z M24.066 76.669c0.614-0.007 1.055-0.603 1.03-1.262 C24.559 75.5 23.9 76 24.1 76.669z M25.241 74.32c-0.528-0.221-1.146 0.248-1.145 0.8 C24.583 75.1 25.2 74.8 25.2 74.32z M23.953 73.856c0.625 0.3 1.1 0.1 1.337-0.664 C24.593 72.7 24.3 73.4 24 73.856z M89.831 56.243c-0.166 0.3 0.3 1.4 0.9 1.1 C90.669 57 90.4 55.9 89.8 56.243z M90.08 55.285c-0.115 0.5 0.6 0.9 0.9 0.8 C90.944 55.7 90.6 54.9 90.1 55.285z M91.647 56.833c0.193 0.6 0.8 1.1 1.4 0.9 C92.915 57 92.2 56.8 91.6 56.833z M92.482 56.188c-0.164-0.476-0.901-0.715-1.328-0.334 C91.361 56.3 92 56.4 92.5 56.188z M92.219 54.993c-0.488-0.301-0.969-0.836-1.481-0.188 C91.214 55.5 91.7 55.4 92.2 54.993z M21.364 55.589c-0.705-0.537-1.254 0.738-1.365 1.2 C20.625 57.3 21.5 56.1 21.4 55.589z M21.26 54.286c-0.632-0.644-1.228 0.386-1.419 0.9 C20.275 55.3 21.3 54.9 21.3 54.286z M19.877 53.586c0.712 0.4 1.604-0.016 2.001-0.793 C21.175 52.6 20.2 52.7 19.9 53.586z M22.744 51.634c-0.467-0.595-1.481-0.452-1.804 0.1 C21.488 52.1 22.4 52.2 22.7 51.634z M23.527 50.363c-0.519-0.958-1.267-0.373-1.969-0.094 C22.117 51 22.8 51.1 23.5 50.363z M22.564 48.835c0.171 0.6 1.2 0.9 1.8 0.6 C24.204 48.7 23.2 48.2 22.6 48.835z M5.064 43.07c-0.698 0.322-1.084 1.091-0.768 1.7 C5.097 44.5 5.2 43.7 5.1 43.07z M6.115 42.351c-0.529 0.314-0.453 1.086-0.177 1.6 C6.461 43.7 6.6 42.8 6.1 42.351z M7.261 41.706c-0.697 0.653-0.576 1.2 0 1.7 C7.545 42.8 8.1 42.2 7.3 41.706z M8.139 41.005c-0.351 0.551-0.123 1.4 0.4 1.6 C9.115 42 8.8 41.2 8.1 41.005z M10.505 68.693c-0.519 0.381-0.597 2.3 0.5 2.3 C11.194 70.4 11.6 68.7 10.5 68.693z M12.38 69.46c0.194-0.65 0.401-2.159-0.745-2.004 C11.107 68 11.9 69.2 12.4 69.46z M13.586 67.833c0.381-1.158-0.536-2.023-1.403-2.373 C11.974 66.6 12.6 67.7 13.6 67.833z M12.218 63.606c-0.075 0.9 0.9 1.5 1.7 1.5 C14.074 64.3 13.2 63.4 12.2 63.606z M12.424 61.706c0.185 1.4 1 1.7 2.1 1.4 C14 62.3 13.7 61.1 12.4 61.706z M25.186 12.533c-0.047-0.502-0.692-0.321-0.97-0.235 C24.333 12.5 24.9 12.7 25.2 12.533z M24.656 12.932c-0.008 0.3 0.5 0.7 0.9 0.6 C25.841 13 25 12.8 24.7 12.932z M24.593 14.131c0.201 0.2 0.7 0.6 1.1 0.4 C25.865 14.1 24.8 13.5 24.6 14.131z M24.887 14.832c-0.022 0.4 0.3 1 0.9 0.9 C25.749 15.3 25.5 14.7 24.9 14.832z M25.433 17.033c0.144-0.562-0.296-1.167-0.888-1.086 C24.565 16.5 24.7 16.9 25.4 17.033z M24.848 18.276c0.212-0.579 0.074-0.972-0.459-1.157 C24.198 17.7 24.3 18.1 24.8 18.276z M93.883 61.858c0.499-0.078 0.277-0.71 0.174-0.981 C93.836 61 93.7 61.6 93.9 61.858z M92.919 62.328c0.582 0.2 0.73-0.636 0.532-0.973 C93.104 61.4 92.8 61.9 92.9 62.328z M92.248 61.368c-0.202 0.214-0.509 0.751-0.365 1.1 C92.388 62.6 92.9 61.5 92.2 61.368z M91.567 61.706c-0.425 0.004-0.968 0.385-0.815 0.9 C91.17 62.6 91.7 62.3 91.6 61.706z M90.433 61.435c-0.507 0.053-0.932 0.237-1.029 1 C89.973 62.5 90.6 62 90.4 61.435z M89.251 61.354c-0.579-0.155-1.006-0.061-1.127 0.5 C88.716 62.1 89.1 61.9 89.3 61.354z M88.301 61.011c-0.299-0.313-1.09-0.16-1.342 0.3 C87.243 62 88.2 61.5 88.3 61.011z M87.298 59.904c-0.365-0.011-1.117 0.146-1.335 0.6 C86.237 61.1 87.7 60.6 87.3 59.904z M86.424 59.552c-0.355-0.392-1.155-0.581-1.513-0.013 C85.271 59.9 86 60.2 86.4 59.552z M85.74 58.274c-0.466-0.426-0.986-0.669-1.734-0.168 C84.376 58.7 85.3 58.9 85.7 58.274z M84.561 57.403c-0.235-0.471-0.545-0.694-1.003-0.43 C83.787 57.5 84.1 57.6 84.6 57.403z M75.015 80.956c0.47 0.2 0.604-0.468 0.653-0.754 C75.41 80.2 75 80.7 75 80.956z M73.946 80.867c0.393 0.5 0.953-0.173 0.956-0.563 C74.597 80.1 74 80.4 73.9 80.867z M69.785 81.667c0.355 0.4 1.338-0.302 0.884-0.769 C70.386 81 69.8 81.3 69.8 81.667z M71.939 80.001c0.368 0.2 1 0.2 1.165-0.359 C72.736 79.4 72.1 79.5 71.9 80.001z M72.269 78.828c-0.463-0.214-0.923-0.272-1.373 0.3 C71.329 79.5 72.1 79.4 72.3 78.828z M71.296 78.153c-0.419-0.429-0.834-0.566-1.241-0.12 C70.475 78.5 70.9 78.5 71.3 78.153z M70.438 80.09c-0.097-0.422-0.854-0.695-1.311-0.423 C69.006 80.4 70.1 80.4 70.4 80.09z M70.143 78.626c-0.308-0.196-1.035-0.445-1.443-0.188 C68.632 79.1 70.1 79.4 70.1 78.626z M69.572 77.876c-0.104-0.518-0.694-1.09-1.293-0.784 C68.397 77.6 68.9 78.2 69.6 77.876z M69.64 76.43c-0.182-0.604-0.505-1.08-1.403-1.031 C68.237 76.1 69 76.7 69.6 76.43z M69.073 75.078c0.039-0.524-0.112-0.875-0.642-0.882 C68.379 74.7 68.6 75 69.1 75.078z M83.89 60.484c-0.216-0.472-1.091-1.773-1.762-1.031 C82.075 60 83.3 61.2 83.9 60.484z M83.731 58.667c-0.316-0.507-1.19-1.526-1.758-0.682 C82.048 58.7 83.3 58.9 83.7 58.667z M80.037 60.522c0.675-0.384 2.205-1.313 1.308-2.321 C80.586 58.5 79.8 59.9 80 60.522z M79.944 58.215c0.591-0.216 1.272-1.419 0.333-1.752 C79.684 56.8 79.5 57.8 79.9 58.215z M82.519 56.873c-0.217-0.472-1.091-1.773-1.762-1.032 C80.704 56.4 81.9 57.6 82.5 56.873z M80.603 54.373c0.074 0.7 1.3 0.9 1.8 0.7 C82.044 54.5 81.2 53.5 80.6 54.373z M81.992 53.31c-0.541-0.928-1.647-0.832-2.386-0.466 C80.208 53.6 81.3 53.9 82 53.31z M79.974 54.589c-0.76 0.303-1.543 1.677-1.308 2.3 C79.341 56.5 80.9 55.6 80 54.589z M78.404 51.736c0.546 0.6 1.5 0.3 2.029-0.23 C79.955 50.9 78.8 51 78.4 51.736z M78.906 52.851c-0.595 0.35-0.752 1.38-0.333 1.8 C79.164 54.4 79.8 53.2 78.9 52.851z M79.438 49.978c-0.839-0.166-1.79-0.661-2.167 0.5 C78.288 51.2 79 50.9 79.4 49.978z M77.772 51.603c-0.547 0.304-0.715 1.284-0.683 1.8 C78.045 53.8 78.6 51.9 77.8 51.603z M76.499 50.286c-0.72 0.492-0.435 1.5 0.1 2 C77.382 51.7 77 50.7 76.5 50.286z M78.023 48.592c-0.871-0.515-1.85 0.179-1.882 1 C76.933 49.9 78 49.3 78 48.592z M74.597 49.186c-0.612 0.991-0.272 1.7 0.3 2.2 C75.646 50.8 75.4 49.6 74.6 49.186z M76.399 47.278c-0.977-0.229-1.796 0.001-2.3 1.1 C75.191 49 76.6 48.3 76.4 47.278z M72.489 48.507c-0.455 0.858-0.021 1.4 0.9 1.8 C73.716 49.5 73.4 48.9 72.5 48.507z M74.504 46.878c-1.061-0.569-1.976 0.083-1.881 1 C73.456 48.1 74.1 47.8 74.5 46.878z M87.585 68.766c-0.74 0.5 0.3 1.4 0.7 1.6 C88.965 69.9 88.1 68.8 87.6 68.766z M86.314 68.481c-0.817 0.396-0.035 1.2 0.4 1.6 C86.927 69.7 86.9 68.6 86.3 68.481z M85.1 67.476c-0.419 0.59-0.648 1.5 0.1 2.1 C85.799 69 85.7 68.1 85.1 67.476z M86.586 67.97c0.77 0.9 1.786-0.336 2.213-0.87 C88.262 66.8 87 67.4 86.6 67.97z M84.282 66.339c-0.718 0.258-0.913 1.234-0.468 1.7 C84.312 67.6 84.7 66.9 84.3 66.339z M86.781 66.781c-0.272-0.396-1.199-0.368-1.584 0.1 C85.367 67.7 86.5 67.3 86.8 66.781z M82.601 67.034c0.839-0.313 1.202-0.853 0.732-1.789 C82.253 65.4 82.6 66.3 82.6 67.034z M85.881 65.39c-0.411-0.076-1.296-0.036-1.633 0.4 C84.433 66.5 86.1 66.2 85.9 65.39z M83.256 64.568c0.328 0.5 1.2 0.9 1.7 0.3 C84.647 64.4 83.8 64 83.3 64.568z M82.69 64.191c-0.725-0.059-1.463 0.702-1.124 1.5 C82.229 65.7 82.8 64.9 82.7 64.191z M84.464 63.326c-0.438-0.55-0.976-0.908-1.927-0.49 C82.823 63.6 83.8 63.9 84.5 63.326z M81.93 62.334c-0.998 0.289-1.33 0.896-1.311 1.7 c-0.873-0.023-1.188 0.448-1.36 1.046c0.635 0.2 1.277-0.241 1.371-0.879C81.466 64.4 82.3 63.3 81.9 62.334z M83.695 61.892c-0.236-0.789-0.665-1.216-1.479-0.918C82.437 61.8 82.9 62.1 83.7 61.892z M81.644 61 c-0.792-0.175-1.485 0.535-1.124 1.495C81.396 62.3 81.8 61.8 81.6 61.021z M90.917 70.3 c0.084 0.6 0.8 0.9 1.3 0.605C91.937 70.5 91.4 70 90.9 70.294z M89.242 69.7 c-0.021 0.8 0.7 0.7 1.3 0.818C90.417 69.8 90.1 69.5 89.2 69.669z M89.708 67.7 c-0.629 0.104-1.044 0.816-0.699 1.375C89.512 68.8 89.9 68.5 89.7 67.68z M91.247 68.6 c-0.677 0.045-1.014 0.357-0.963 0.977C90.942 69.5 91.3 69.2 91.2 68.579z M34.971 13.8 c-0.06-0.314-0.217-1.035-0.73-0.821C34.257 13.3 34.7 13.8 35 13.822z M34.127 13.7 c-0.009-0.43-0.636-1.137-1.061-0.605C33.16 13.6 33.8 13.9 34.1 13.72z M32.991 14.4 c0.493-0.521-0.599-1.266-0.984-0.833C32.081 14 32.7 14.3 33 14.401z M32.158 14.5 c-0.158-0.627-0.886-0.604-1.288-0.378C31.029 14.7 31.8 14.7 32.2 14.477z M29.734 15.1 c0.505 0.6 1 0.5 1.5 0.303C31.023 14.8 30.2 14.7 29.7 15.082z M28.826 16.3 c0.454 0.5 0.9 0.3 1.363-0.151C29.734 15.7 29.3 15.8 28.8 16.292z M32.716 8.3 c-0.283 0.178-1.039 0.847-0.507 1.211C32.573 9.4 33.2 8.6 32.7 8.251z M31.284 9.7 c0.433-0.107 0.456-0.904 0.284-1.179C31.271 8.8 30.7 9.4 31.3 9.688z M30.485 8.9 c-0.547 0.425-0.39 1.122-0.092 1.561C30.839 10 30.9 9.3 30.5 8.893z M29.789 11.3 c0.318-0.396 0.035-0.972-0.322-1.273C29.139 10.4 29.3 11.1 29.8 11.315z M29.09 12.1 c0.35-0.707 0.092-1.109-0.513-1.337C28.543 11.4 28.3 12 29.1 12.145z M28.613 12.9 c0.112-0.528-0.319-1.141-0.799-1.113C27.559 12.4 28.1 13 28.6 12.942z M28.042 14.3 c0.281-0.746-0.318-1.556-0.927-1.367C27.053 13.6 27.3 14.1 28 14.345z M27.821 15.3 c0.099-0.554-0.166-0.926-0.8-1.113C26.75 14.9 27.2 15.5 27.8 15.333z M27.224 17.159c0.327-0.77 0.074-1.672-0.65-1.956 C26.113 16 26.6 16.8 27.2 17.159z M27.085 18.419c0.195-0.641-0.433-1.207-1.016-1.402 C25.84 17.6 26.4 18.4 27.1 18.419z M28.061 17.495c0.506 0.3 1.335-0.02 1.435-0.485 C29.09 16.7 27.9 16.7 28.1 17.495z M27.172 20.136c0.083-1.037-0.429-1.403-1.282-1.387 C26.118 19.4 26.1 20.3 27.2 20.136z M27.609 18.852c0.453 0.3 1.249-0.006 1.584-0.228 C29.116 17.7 27.5 18.1 27.6 18.852z M28.847 19.279c-0.713-0.37-1.29 0.325-1.412 0.9 C28.099 20.5 28.7 19.9 28.8 19.279z M26.875 21.757c0.99 0 1.338-0.489 1.529-1.155 C27.644 20.3 26.9 21 26.9 21.757z M27.376 23.525c0.583-0.015 0.744-0.403 0.693-0.979 C27.528 22.6 27.3 22.9 27.4 23.525z M25.584 27.391c0.062-0.661-1.374-2.042-2.061-1.208 C23.776 26.7 24.8 28.3 25.6 27.391z M23.708 28.311c0.37 0.6 1.4 1.8 2.1 0.8 C25.678 28.3 24.2 28.1 23.7 28.311z M26.501 28.856c0.89-0.354 1.807-1.961 1.531-2.718 C27.242 26.6 25.5 27.7 26.5 28.856z M27.751 30.891c0.695-0.409 0.88-1.615 0.389-2.051 C27.449 29.1 26.7 30.5 27.8 30.891z M24.747 30.792C25 31.3 26 32.9 26.8 32 C26.87 31.3 25.4 30 24.7 30.792z M26.989 33.718c-0.088-0.805-1.519-1.041-2.058-0.799 C25.301 33.5 26.3 34.7 27 33.718z M27.724 33.465c0.89-0.354 1.807-1.962 1.531-2.718 C28.465 31.2 26.7 32.3 27.7 33.465z M29.562 36.805c-0.639-0.669-1.745-0.298-2.375 0.3 C27.746 37.8 29.1 37.7 29.6 36.805z M28.975 35.5c0.695-0.409 0.88-1.615 0.39-2.051 C28.672 33.7 27.9 35.1 29 35.5z M29.07 38.236c0.981 0.2 2.1 0.8 2.536-0.598 C30.416 36.8 29.6 37.2 29.1 38.236z M19.059 16.963c0.78-0.52-0.307-1.446-0.714-1.692 C17.604 15.7 18.5 16.9 19.1 16.963z M20.657 17.178c0.862-0.417 0.037-1.313-0.391-1.651 C20.012 15.9 20 17 20.7 17.178z M22.007 16.134c-0.634 0.574-0.537 1.6 0.1 2.2 C22.552 17.7 22.8 16.7 22 16.134z M18.295 18.807c0.566 0.3 1.948-0.27 2.333-0.918 C19.816 17 18.7 18.2 18.3 18.807z M23.464 17.557c-0.523 0.43-0.947 1.243-0.493 1.8 C23.729 19.1 23.9 18 23.5 17.557z M20.25 19.143c0.288 0.4 1.3 0.4 1.671-0.106 C21.742 18.2 20.5 18.6 20.2 19.143z M24.832 19.219c-0.885 0.331-1.268 0.899-0.773 1.9 C25.197 20.9 24.9 20 24.8 19.219z M21.372 20.953c0.434 0.1 1.4 0 1.722-0.42 C22.899 19.8 21.1 20.1 21.4 20.953z M22.336 21.525c0.336 0.5 1.2 0.9 1.8 0.3 C23.794 21.3 22.9 20.9 22.3 21.525z M24.736 22.217c0.764 0.1 1.542-0.74 1.185-1.577 C25.223 20.6 24.6 21.5 24.7 22.217z M22.867 23.13c0.46 0.6 1 1 2 0.5 C24.596 22.9 23.5 22.5 22.9 23.13z M25.539 24.176c1.127-0.327 1.453-1.036 1.376-1.937 C26.032 22 25.1 23.1 25.5 24.176z M25.237 25.611c-0.233-0.862-0.741-1.208-1.561-0.968 C23.926 25.5 24.4 25.9 25.2 25.611z M25.841 25.56c0.835 0.2 1.566-0.563 1.185-1.577 C26.101 24.3 25.7 24.8 25.8 25.56z M17.325 16.145c0.023-0.926-0.776-0.811-1.413-0.9 C16.032 16 16.4 16.4 17.3 16.145z M17.171 18.155c0.693-0.115 1.149-0.898 0.77-1.514 C17.388 16.9 17 17.3 17.2 18.155z M85.151 36.584c-0.781 0.161-0.95 0.642-0.97 1.2 C84.833 37.9 85.3 37.2 85.2 36.584z M84.002 36.496c0.585-0.207 0.734-0.641 0.497-1.277 C83.858 35.4 83.8 35.9 84 36.496z M88.469 38.378c0.203 0.5 0.8 0.5 1.3 0.3 C89.584 38.2 88.9 38 88.5 38.378z M88.057 37.375c0.465 0.6 0.9 0.6 1.4 0.2 C89.01 37.3 88.5 36.7 88.1 37.375z M87.57 36.583c0.416 0.3 1.2 0.2 1.357-0.192 C88.514 35.9 87.8 36.1 87.6 36.583z M86.591 35.428c0.531 0.6 1.5 0.4 1.642-0.187 C87.692 34.9 87.1 34.8 86.6 35.428z M85.815 34.775c0.447 0.3 0.9 0.3 1.358-0.192 C86.657 34 86 34.2 85.8 34.775z M84.473 33.399c0.531 0.6 1.4 0.8 2 0.3 C86.024 33 85.1 33.1 84.5 33.399z M83.419 32.693c0.479 0.5 1.3 0.2 1.715-0.25 C84.714 32 83.7 32 83.4 32.693z M83.787 33.984c-0.494 0.313-0.601 1.192-0.234 1.5 C84.048 35.3 84.6 34.2 83.8 33.984z M81.856 31.975c0.881 0.6 1.4 0.3 1.824-0.492 C82.965 31.4 82.1 31 81.9 31.975z M82.793 32.956c-0.457 0.271-0.573 1.108-0.533 1.5 C83.082 34.8 83.5 33.2 82.8 32.956z M81.711 32.195c-0.598 0.436-0.328 1.3 0.1 1.7 C82.498 33.4 82.1 32.6 81.7 32.195z M80.556 30.96c-0.493 0.857-0.187 1.4 0.3 1.9 C81.489 32.3 81.3 31.3 80.6 30.96z M79.302 31.652c0.206-0.503 0.006-0.853-0.548-1.067 C78.498 31.1 78.8 31.4 79.3 31.652z M76.155 27.207c0.558 0.4 2.448-0.27 2.026-1.265 C77.575 25.9 75.8 26.1 76.2 27.207z M74.548 26.571c0.754 0.3 1.626-0.862 1.661-1.452 C75.512 25.2 74 25.5 74.5 26.571z M74.431 27.339c-0.098 1 0.9 2.5 1.7 2.6 C76.099 29 76 27 74.4 27.339z M72.047 27.502c0.04 0.8 1 1.5 1.6 1.3 C73.781 28.1 72.9 26.7 72 27.502z M71.5 26.154c0.558 0.4 2.447-0.27 2.026-1.265 C72.92 24.9 71.1 25.1 71.5 26.154z M69.892 25.519c0.755 0.3 1.627-0.862 1.662-1.452 C70.856 24.1 69.3 24.5 69.9 25.519z M67.764 25.72c1.137-0.2 1.993-1.169 1.778-2.219 C68.284 23.6 67.8 24.8 67.8 25.72z M69.775 26.286c-0.099 1 0.9 2.5 1.7 2.6 C71.444 28 71.3 25.9 69.8 26.286z M65.962 26.364c0.889-0.255 1.073-1.407 0.861-2.227 C65.964 24.3 65.4 25.5 66 26.364z M69.03 27.745c0.096-0.729-0.783-2.088-1.64-1.295 C67.432 27.3 68.4 28 69 27.745z M64.274 27.788c1.264-0.682 1.304-1.549 0.645-2.522 C64.293 26 63.3 26.8 64.3 27.788z M88.431 26.263c0.1 0.9 1.4 0.4 1.8 0.2 C90.209 25.6 88.7 25.8 88.4 26.263z M87.499 27.578c-0.029 1 1.1 0.6 1.6 0.4 C88.917 27.6 87.9 27.1 87.5 27.578z M87.8 29.257c-0.215-0.827-1.139-1.201-1.99-0.924 C86.156 29 86.9 29.7 87.8 29.257z M86.882 27.223c1.188-0.294 0.559-1.832 0.268-2.49 C86.637 25.1 86.5 26.6 86.9 27.223z M85.861 29.887c-0.138-0.663-0.662-1.414-1.362-1.267 C84.389 29.4 85.2 30.1 85.9 29.887z M85.264 27.835c0.863 0.2 0.999-1.044 0.681-1.528 C85.441 26.4 85 27.2 85.3 27.835z M83.754 30.327c0.117-0.936-0.21-1.539-1.315-1.558 C82.097 29.9 83.1 30 83.8 30.327z M83.819 26.462c-0.273 0.346-0.667 1.191-0.426 1.7 C84.139 28.4 84.7 26.6 83.8 26.462z M81.768 28.509c0.604-0.074 1.405-0.635 1.098-1.459 C82.249 27.1 81.5 27.7 81.8 28.509z M81.139 28.854c-0.409 0.648-0.058 1.7 0.8 1.8 C82.339 30 81.9 29.1 81.1 28.854z M81.195 26.776c-0.727 0.139-1.326 0.466-1.399 1.6 C80.63 28.4 81.4 27.6 81.2 26.776z M80.109 30.771c0.634-0.664 0.026-1.98-1.08-2.115 C78.796 29.8 79.3 30.4 80.1 30.771z M77.896 27.725c0.873 0.2 1.416-0.096 1.583-0.933 C78.624 26.6 78 26.8 77.9 27.725z M77.661 28.282c-0.551 0.654-0.226 1.6 0.9 1.8 C78.697 29.1 78.4 28.5 77.7 28.282z M89.96 25.107c0.811 0.5 1.078-0.312 1.453-0.833 C90.696 24 90.2 24.2 90 25.107z M88.248 24.04c-0.219 0.7 0.3 1.4 1 1.4 C89.25 24.8 89.1 24.3 88.2 24.04z M65.273 30.396c0.515 1.2 2 0.3 2.663-0.156 C67.458 29.7 65.9 29.8 65.3 30.396z M47.912 28.954c0.855-0.023 1.407-1.038 1.096-1.721 C48.336 27.5 47.6 28.2 47.9 28.954z M66.632 28.656c-0.151-0.54-1.148-0.85-1.724-0.47 C64.797 29.2 66.2 29.1 66.6 28.656z M31.8 28.011c-0.05 0.8 1.9 1.2 1.9 0.2 C33.27 27.9 32.3 27.7 31.8 28.011z M45.829 25.482c-0.05 0.8 1.9 1.2 1.9 0.2 C47.298 25.4 46.3 25.1 45.8 25.482z M76.093 41.118c-0.411-0.236-1.367-0.515-1.88-0.156 C74.163 41.8 76.1 42.2 76.1 41.118z M64.381 32.904c0.751 0.3 1.805-0.244 1.723-1.252 C65.409 31.4 64.5 32.1 64.4 32.904z M61.605 28.017c0.794-0.199 1.43-0.589 1.421-1.754 C62.094 26.2 61.3 27.1 61.6 28.017z M48.613 25.366c1.248 0 1.813-0.587 2.036-1.564 C49.842 23.2 48.6 24.1 48.6 25.366z M50.975 25.431c-0.807-0.575-2.085 0.327-2.036 1.6 C50.187 27 50.8 26.4 51 25.431z M74.628 39.118c-0.807-0.575-2.085 0.328-2.035 1.6 C73.84 40.7 74.4 40.1 74.6 39.118z M68.263 29.146c0.025-0.965-0.281-1.597-1.254-1.565 C66.958 28.6 67.4 29.1 68.3 29.146z M31.633 84.243c0.714 0.1 1.683-0.104 1.843-0.877 C32.739 82.9 31.7 83.5 31.6 84.243z M32.871 82.146c0.873 0.5 1.6 0.4 2.109-0.712 C34.039 80.6 33.5 81.6 32.9 82.146z M37.39 79.344c0.223 0.4 0.9 1.2 1.5 1.1 C39.392 79.8 38 78.5 37.4 79.344z M36.891 80.14c-0.211 0.7 0.1 1.7 1 1.7 C38.042 81.2 37.8 80.2 36.9 80.14z M37.447 78.164c-1.033-0.701-1.849-0.463-2.557 0.2 C35.269 79.3 36.8 79.2 37.4 78.164z M38.279 76.838c-0.405-0.824-1.526-0.895-2.125 0.1 C37.005 77.6 37.7 77.5 38.3 76.838z M52.031 16.914c-0.478 0.193-0.975 0.698-0.779 1.2 C51.86 18.1 52.3 17.4 52 16.914z M52.077 18.645c-0.713 0.029-1.124 0.361-1.002 1.2 C51.942 20 51.9 19.2 52.1 18.645z M50.411 22.039c-0.292-0.168-0.973-0.367-1.337-0.11 C49.038 22.5 50.4 22.8 50.4 22.039z M50.411 21.371c-0.119-0.472-0.687-0.975-1.226-0.667 C49.315 21.2 49.8 21.7 50.4 21.371z M50.822 22.772c0.888 0 1.289-0.417 1.448-1.113 C51.696 21.2 50.8 21.9 50.8 22.772z M52.047 22.995c-0.729-0.023-1.137 0.274-1.226 0.9 C51.378 24.2 52.1 23.9 52 22.995z M35.179 28.765c-0.904 0.485-1.189 1.134-0.862 1.9 C35.237 30.7 35.8 29.8 35.2 28.765z M51.178 10.505c-0.685 0.735-0.765 1.5 0.2 2.2 C52.38 12 51.6 11.2 51.2 10.505z M51.327 13.097c-0.458 0.122-1.334 0.596-1.445 1.2 C50.443 14.9 52 13.9 51.3 13.097z M54.247 14.361c1.005-0.166 0.439-1.384 0.108-1.881 C53.976 12.8 53.7 14 54.2 14.361z M55.793 13.539c-0.822 0.405-1.027 1.491-0.566 2.4 C55.867 15.4 56.4 14.4 55.8 13.539z M51.132 15.067c0.49 0.5 2.1 0.3 2.658-0.225 C53.244 13.6 51.8 14.6 51.1 15.067z M55.737 17.453c0.854-0.045 1.379-1.074 1.051-1.749 C56.123 16 55.4 16.7 55.7 17.453z M53.196 16.11c0.164 0.5 1.2 0.8 1.7 0.4 C55.017 15.5 53.6 15.7 53.2 16.11z M56.403 19c1.224 0.1 1.168-0.926 1.364-1.756 C56.766 17.3 56.2 17.8 56.4 19z M53.713 17.974c0.417 0.2 1.4 0.5 1.9 0.1 C55.624 17.2 53.7 16.9 53.7 17.974z M54.521 18.893c0.183 0.7 1 1.3 1.7 0.9 C56.067 19.1 55.3 18.4 54.5 18.893z M56.753 20.4c0.759 0.3 1.797-0.291 1.689-1.295 C57.741 18.8 56.8 19.6 56.8 20.4z M54.568 20.769c0.292 0.8 0.8 1.3 1.9 1.2 C56.412 21 55.4 20.3 54.6 20.769z M56.771 22.695c1.249 0 1.798-0.633 1.995-1.616 C57.945 20.5 56.7 21.5 56.8 22.695z M56.224 24.169c0.025-0.991-0.386-1.522-1.293-1.531 C54.929 23.6 55.3 24.2 56.2 24.169z M26.98 61.067c-0.743-0.028-1.276 0.821-1.044 1.4 C26.533 62.3 27.2 61.7 27 61.067z M26.385 60.026c-0.962-0.466-1.221 0.427-1.62 1.1 C25.605 61.3 26.2 61.1 26.4 60.026z M28.213 60.548c0.265-0.688-1.212-1.482-1.512-0.625 C26.978 60.2 27.7 60.7 28.2 60.548z M24.957 59.426c0.542 0.6 1.55-0.488 1.479-0.976 C25.82 57.8 25.1 59 25 59.426z M25.011 57.843c0.409 0.2 1.458-0.072 1.492-0.671 C25.971 56.5 25.3 57.4 25 57.843z M27.295 55.8c-0.657-0.283-1.62-0.315-2.047 0.5 C25.891 56.8 26.8 56.5 27.3 55.8z M27.057 57.329c-0.731 0.9 0.6 1.6 1.2 2 C28.471 58.7 27.7 57.6 27.1 57.329z M28.285 54.785c-0.377-0.639-1.38-0.629-1.769-0.106 C27.005 55.1 27.8 55.3 28.3 54.785z M27.902 55.773c-0.799 0.333-0.152 1.3 0.4 1.5 C28.618 56.9 28.4 56 27.9 55.773z M27.309 53.308c0.454 0.7 1.1 1 1.9 0.3 C28.83 52.7 28 53.1 27.3 53.308z M29.5 56.131c0.007-0.41-0.184-1.253-0.672-1.49 C28.163 55 28.7 56.6 29.5 56.131z M29.883 55.143c0.434-0.406 0.634-1.309-0.013-1.701 C29.455 53.9 29.2 54.7 29.9 55.143z M30.148 52.821c-0.065-0.708-0.945-1.265-1.676-0.778 C28.556 52.7 29.5 53.1 30.1 52.821z M31.309 54.352c0.472-0.53 0.736-1.12 0.16-1.951 C30.78 52.8 30.6 53.9 31.3 54.352z M31.865 51.714c-0.49-0.965-1.21-1.126-2.046-0.884 C29.722 51.7 30.9 52.3 31.9 51.714z M89.09 18.191c-0.694 0.364-0.892 0.895-0.696 1.6 C89.364 19.8 89.6 18.6 89.1 18.191z M90.78 20.227c0.119-0.865-1.026-1.246-1.448-0.481 C89.622 20.5 90.1 20.5 90.8 20.227z M92.993 10.153c-0.584-0.208-0.882 0.894-0.657 1.2 C92.978 11.5 93 10.5 93 10.153z M92.754 12.25c0.618 0.3 0.769-0.597 0.775-0.998 C93.193 11.3 92.6 11.8 92.8 12.25z M92.71 13.473c0.55-0.044 1.22-0.37 1.21-1.089 C93.313 12.3 92.8 12.8 92.7 13.473z M92.318 12.342c0.168-0.889-1.032-0.896-1.554-0.885 C90.853 11.9 91.8 12.4 92.3 12.342z M92.4 14.523c0.489 0.3 1.171-0.069 1.246-0.566 C93.17 13.9 92.5 14 92.4 14.523z M91.508 12.816c-0.112 0.4 0.3 0.9 0.8 0.9 C92.729 13.2 91.9 12.7 91.5 12.816z M92.18 15.632c0.621 0.5 0.997-0.069 1.422-0.453 C93.023 14.8 92.5 14.9 92.2 15.632z M91.085 14.043c0.144 0.3 0.6 0.8 1 0.8 C92.422 14.4 91.5 13.5 91.1 14.043z M91.805 16.014c0.135-0.43 0.011-1.133-0.624-1.157 C91.031 15.3 91.2 16 91.8 16.014z M93.267 16.463c-0.29-0.408-1.069-0.36-1.427 0.1 C92.141 17 92.9 17.1 93.3 16.463z M91.091 17.302c0.316-0.539 0.04-1.298-0.598-1.39 C90.363 16.4 90.4 16.9 91.1 17.302z M92.786 17.778c-0.243-0.618-1.292-0.579-1.717 0.1 C91.753 18.4 92.3 18.2 92.8 17.778z M90.113 18.418c0.392-0.538 0.367-0.987-0.132-1.337 C89.614 17.6 89.6 18.1 90.1 18.418z M91.834 18.661c-0.563-0.393-1.039-0.367-1.427 0.1 C90.669 19.3 91.4 19.4 91.8 18.661z M89.961 21.718c0.217-0.896-1.465-1.166-1.885-0.784 C87.888 21.9 89.5 21.8 90 21.718z M86.81 21.693c-0.333 1 1 1 1.6 1 C88.302 22.2 87.4 21.3 86.8 21.693z M86.796 23.442c0.035-0.915-0.822-1.613-1.808-1.624 C85.139 22.6 85.7 23.6 86.8 23.442z M87.675 18.622c-0.658 0.201-1.285 1.652-1.07 2.4 C87.951 21.2 87.8 19.4 87.7 18.622z M83.379 21.526c-0.367 0.8 0.3 1.7 1 1.8 C84.479 22.6 84.2 21.6 83.4 21.526z M85.773 19.936c-0.55-0.11-1.279 0.635-1.201 1.3 C85.403 21.8 86 20.5 85.8 19.936z M81.699 21.373c-0.71 1 0.3 1.5 0.9 2 C83.014 22.5 82.9 21.8 81.7 21.373z M83.886 19.501c-0.397 0.258-1.081 0.982-0.993 1.6 C83.626 21.5 84.8 20 83.9 19.501z M82.692 19.771c-0.667-0.153-1.659 0.236-1.619 1.1 C81.733 21 82.8 20.7 82.7 19.771z M80.636 23.114c0.56-0.494 0.366-1.641-0.334-2.102 C79.665 21.5 79.7 22.7 80.6 23.114z M79.049 20.022c0.85 0.4 1.934-0.145 1.97-1.104 C80.207 18.8 79.5 18.9 79 20.022z M78.138 20.085c-0.609 1.089-0.301 1.9 0.5 2.5 C79.487 22.2 79.3 20.6 78.1 20.085z M76.813 19.236c-0.788 0.475-0.759 1.6 0.3 2.1 C77.643 20.4 77.5 19.7 76.8 19.236z M64.963 8.195c0.186-1.183-1.209-0.915-1.814-0.78 C63.255 8 64.3 8.4 65 8.195z M64.173 8.737c-0.124 0.6 0.6 1.3 1.3 1.2 C66.069 9.1 64.8 8.5 64.2 8.737z M63.509 10.681c0.236 0.4 0.9 1 1.5 0.9 C65.383 10.9 64 9.8 63.5 10.681z M65.084 13.503c0.138-0.658-0.15-1.683-1.096-1.626 C63.83 12.5 64.2 13.5 65.1 13.503z M63.959 15.142c0.36-0.781-0.121-1.783-1.007-1.823 C62.847 14.1 63 14.7 64 15.142z M64.671 6.756c-0.038-0.526-0.791-0.927-1.465-0.692 C63.421 6.5 63.8 6.8 64.7 6.756z M62.771 16.802c0.464-0.788 0.369-1.401-0.36-1.812 C61.979 15.8 62 16.4 62.8 16.802z M63.9 4.953c0.873-0.524-0.102-1.448-0.594-1.789 C63.077 3.6 63.2 4.8 63.9 4.953z M65.681 3.89c-0.798 0.244-1.07 1.057-0.705 1.761C65.612 5.3 66.2 4.6 65.7 3.9 z M65.187 6.797c0.854 0 1.473-0.943 1.207-1.646C65.705 5.4 65 6 65.2 6.797z M65.708 8.4 c1.206 0.3 1.248-0.816 1.52-1.625C66.224 6.8 65.6 7.2 65.7 8.399z M65.928 9.825c0.728 0.4 1.816-0.125 1.802-1.136 C67.055 8.4 66.1 9 65.9 9.825z M65.929 12.176c1.242 0.1 1.849-0.467 2.135-1.427 C67.297 10.1 66 10.9 65.9 12.176z M65.67 13.728c0.748 0.5 1.8 0.1 1.802-1.136 C66.449 12.5 65.9 12.9 65.7 13.728z M62.045 16.869c-0.931 0.912-0.488 2.2 0.2 2.9 C62.945 18.9 62.9 17.5 62 16.869z M61.262 21.548c0.51-0.81-0.144-1.825-0.874-2.312 C59.851 20 60.3 21.3 61.3 21.548z M62.424 20.628c0.588 0.6 1.8 0.5 2.16-0.132 C64.154 19.9 62.5 19.4 62.4 20.628z M60.301 23.25c0.503-1.397-0.065-2.094-1.246-2.391 C59.109 21.9 58.8 23.2 60.3 23.25z M63.562 22.608c0.226-1.25-2.117-1.296-2.268-0.279 C61.813 22.9 63 22.8 63.6 22.608z M60.124 24.216c0.793 0.7 1.9 0.1 2.276-0.688 C61.557 22.8 60.5 23.5 60.1 24.216z M57.678 22.933c-0.347 1.2 0.8 2.1 1.7 1.9 C59.508 23.8 58.6 22.8 57.7 22.933z M59.396 26.776c1.349 0.4 2.026-0.173 2.54-1.021 C61.001 25.1 59.7 25.7 59.4 26.776z M56.616 25.229c0.022 1.2 0.5 2.1 2 2.4 C59.01 26.1 57.7 24.7 56.6 25.229z M61.099 27.906c-1.084-0.186-1.69 0.358-1.874 1.5 C60.37 29.7 60.9 29.1 61.1 27.906z M56.709 27.572c-0.353 1.4 0.7 2.3 1.7 1.9 C58.51 28.4 57.9 27.8 56.7 27.572z M76.756 18.333c0.366 0.5 2.2 0.6 2.214-0.419 C78.447 17.7 76.8 17.2 76.8 18.333z M75.011 17.297c0.563 0.5 1.725-0.201 1.958-0.707 C76.337 16.4 74.9 16.2 75 17.297z M73.073 16.748c1.066 0.2 2.15-0.347 2.321-1.342 C74.271 15 73.4 15.9 73.1 16.748z M75.246 20.811c0.281-0.81 0.879-2.69-0.6-2.878 C74.234 18.7 74.6 20.4 75.2 20.811z M71.269 16.699c0.869 0.1 1.425-0.869 1.52-1.662 C71.971 14.9 71 15.8 71.3 16.699z M72.495 17.262c-0.239 0.7 0.4 1.7 1 1.7 C73.826 18.4 73.5 16.9 72.5 17.262z M69.42 16.483c1.344-0.167 1.676-0.916 1.43-1.996 C70.033 15 68.9 15.2 69.4 16.483z M70.647 17.045c-0.235 0.6 0.3 1.6 0.7 2 C72.464 18.7 71.5 16.7 70.6 17.045z M70.128 18.438c0.284-1.005-0.754-1.556-1.496-1.563 C68.39 17.8 69.4 18.5 70.1 18.438z M67.829 16.555c0.861-0.339 1.331-1.533 0.838-2.193 C67.569 14.6 67.3 15.9 67.8 16.555z M66.251 17.338c0.21 1.3 1 1.6 1.9 1.6 C68.306 17.9 67.3 17.1 66.3 17.338z M65.281 17.064c1.333-0.304 1.928-1.923 1.082-2.617 C65.386 15 64.9 15.8 65.3 17.064z M64.006 18.303c0.245 1 1 1.2 2 0.9 C65.738 18.2 65 18 64 18.303z M63.657 17.681c0.888-0.382 1.17-1.111 0.839-2.193 C63.202 15.8 62.9 17 63.7 17.681z M20.476 74.28c-0.657-0.119-1.149 0.124-1.43 0.8 C19.475 75.6 20.7 75.2 20.5 74.28z M21.185 76.532c0.231-0.646 0.13-1.143-0.613-1.347 C19.877 75.7 20.4 76.7 21.2 76.532z M12.771 78.942c-0.319-0.186-1.352 0.215-1.092 0.8 C12.017 79.7 13 79.5 12.8 78.942z M12.797 80.103c0.386-0.048 1.228-0.284 0.884-0.85 C13.254 79.1 12.8 79.8 12.8 80.103z M13.929 80.363c0.697-0.064 0.943-0.743 0.929-1.279 C14.232 79.2 13.8 79.8 13.9 80.363z M13.726 78.823c0.029-0.53-0.568-1.369-1.015-1.407 C12.754 77.9 12.9 79.1 13.7 78.823z M15.422 79.938c0.473-0.124 0.759-0.818 0.42-1.26 C15.354 78.8 15.3 79.5 15.4 79.938z M14.101 77.993c-0.034 0.4 0.5 1.1 0.9 0.7 C15.001 78.2 14.4 77.8 14.1 77.993z M16.598 79.771c0.328-0.449 0.88-0.875 0.291-1.418 C16.206 78.8 16.2 79.2 16.6 79.771z M15.242 77.46c-0.517 0.4 0.4 1.3 0.9 0.9 C16.064 77.9 15.5 77.6 15.2 77.46z M16.039 77.47c0.088 0.6 0.8 0.7 1.2 0.5 C17.127 77.4 16.4 77.3 16 77.47z M17.729 77.933c-0.383 0.39-0.349 1.1 0.1 1.4 C18.347 78.9 18.2 78.2 17.7 77.933z M16.987 76.698c0.154 0.6 0.9 0.8 1.4 0.4 C17.974 76.5 17.5 76.5 17 76.698z M19.025 78.717c0.402-0.513 0.491-1.059-0.045-1.669 C18.334 77.5 18.4 78.5 19 78.717z M18.065 76.085c0.389 0.4 0.8 0.4 1.305-0.011 C18.987 75.6 18.5 75.7 18.1 76.085z M19.707 76.326c-0.387 0.418-0.364 0.9 0.1 1.4 C20.407 77.2 20.3 76.5 19.7 76.326z M19.804 87.799c0.506 0.6 1.499-0.431 1.441-0.899 C20.668 86.3 20 87.4 19.8 87.799z M19.892 86.283c0.388 0.2 1.4-0.035 1.447-0.609 C20.847 85 20.1 85.9 19.9 86.283z M20.157 84.822c0.604 0.5 1.5 0.2 1.975-0.445 C21.508 84.1 20.6 84 20.2 84.822z M23.105 83.428c-0.348-0.621-1.31-0.635-1.693-0.144 C21.871 83.7 22.7 83.9 23.1 83.428z M22.714 84.367c-0.773 0.299-0.178 1.3 0.3 1.4 C23.373 85.5 23.2 84.6 22.7 84.367z M24.019 82.363c-0.342-0.967-1.121-0.532-1.815-0.375 C22.621 82.7 23.2 83 24 82.363z M23.628 83.303c-0.645 0.29-0.175 1.8 0.6 1.4 C24.253 84.4 24.1 83.5 23.6 83.303z M24.657 82.177c-0.407 0.384-0.7 1.22-0.028 1.6 C25.055 83.4 25.3 82.6 24.7 82.177z M24.938 81.589c-0.045-0.682-0.877-1.235-1.589-0.786 C23.414 81.4 24.3 81.8 24.9 81.589z M26.214 81.217c-0.671 0.391-0.834 1.381-0.2 1.9 C26.48 82.6 26.7 82 26.2 81.217z M26.61 80.568c-0.447-0.938-1.134-1.109-1.941-0.896 C24.557 80.5 25.7 81.1 26.6 80.568z M27.663 79.754c0.056-0.764-0.72-1.284-1.588-0.785 C26.444 79.7 27 80 27.7 79.754z M10.338 29.258c-0.199-0.809-1.354-0.199-1.698 0.1 C8.789 30.1 10.2 29.7 10.3 29.258z M9.474 28.049c0.255 0.3 1.2 0.7 1.6 0.2 C10.949 27.4 9.9 27.8 9.5 28.049z M10.433 26.916c0.292 0.7 1.2 0.9 1.9 0.6 C11.969 27 11.2 26.4 10.4 26.916z M12.288 26.208c0.203 0.6 0.8 1.2 1.4 1 C13.693 26.5 12.9 26 12.3 26.208z M11.042 30.352c0.454-0.107 0.745-0.925 0.448-1.416 C10.67 28.8 10.7 30 11 30.352z M12.565 28.197c-0.82-0.126-0.796 1.025-0.448 1.4 C12.571 29.5 12.9 28.7 12.6 28.197z M15.008 26.708c0.187-1.007-0.706-1.02-1.386-1.229 C13.622 26.3 14 26.8 15 26.708z M13.516 29.209c0.211-0.333 0.476-1.118 0.194-1.556 C13.006 27.6 12.6 29.2 13.5 29.209z M14.325 28.509c0.558-0.115 1.173-0.755 0.84-1.399 C14.619 27.2 13.9 27.8 14.3 28.509z M16.19 26.496c0.302-0.614-0.142-1.508-0.984-1.474 C14.955 25.6 15.5 26.4 16.2 26.496z M15.888 28.165c0.652-0.199 1.163-0.551 1.105-1.52 C16.217 26.7 15.6 27.4 15.9 28.165z M98.917 51.637c-0.036 0.5 1 1.4 1.5 0.8 C100.212 52.1 99.5 51 98.9 51.637z M100.24 50.96c-0.271-0.417-1.013-1.254-1.474-0.542 C98.84 51 99.9 51.1 100.2 50.96z M99.909 49.514c-0.464-0.767-1.383-0.67-1.993-0.355 C98.429 49.8 99.3 50 99.9 49.514z M96.899 48.254c0.463 0.5 1.2 0.2 1.686-0.22 C98.179 47.6 97.2 47.6 96.9 48.254z M97.333 49.175c-0.488 0.3-0.605 1.16-0.252 1.5 C97.571 50.5 98.1 49.4 97.3 49.175z M97.735 46.775c-0.701-0.125-1.499-0.524-1.796 0.5 C96.795 47.8 97.4 47.5 97.7 46.775z M96.372 48.153c-0.451 0.26-0.576 1.078-0.542 1.5 C96.631 50 97 48.4 96.4 48.153z M95.396 48.703c0.652-0.44 0.321-1.263-0.104-1.628 C94.7 47.5 95 48.3 95.4 48.703z M96.537 45.644c-0.732-0.417-1.537 0.174-1.552 0.9 C95.648 46.7 96.5 46.3 96.5 45.644z M93.694 46.188c-0.496 0.832-0.204 1.4 0.3 1.9 C94.59 47.5 94.4 46.5 93.7 46.188z M93.269 45.558c0.917 0.5 2.047-0.174 1.897-0.983 C94.351 44.4 93.7 44.6 93.3 45.558z M93.73 43.936c-0.891-0.459-1.642 0.097-1.551 0.9 C92.877 45 93.4 44.7 93.7 43.936z M75.879 4.431c-0.534-0.554-1.476 0.504-1.396 1 C75.088 6 75.7 4.8 75.9 4.431z M75.864 5.949c-0.395-0.142-1.396 0.103-1.415 0.7 C74.975 7.3 75.6 6.4 75.9 5.949z M75.672 7.421c-0.627-0.434-1.501-0.146-1.951 0.5 C74.358 8.2 75.3 8.2 75.7 7.421z M72.795 8.958c0.377 0.6 1.3 0.6 1.7 0.1 C74.016 8.7 73.2 8.4 72.8 8.958z M73.14 8c0.758-0.336 0.115-1.292-0.39-1.433C72.427 6.9 72.6 7.7 73.1 8z M71.935 10.065c0.389 0.9 1.1 0.5 1.8 0.286C73.313 9.6 72.7 9.4 71.9 10.065z M72.279 9.1 c0.63-0.321 0.085-1.834-0.679-1.414C71.604 8.1 71.8 8.9 72.3 9.108z M71.307 10.283c0.388-0.404 0.64-1.253-0.051-1.631 C70.849 9.1 70.7 9.9 71.3 10.283z M71.055 10.883c0.078 0.7 0.9 1.2 1.6 0.7 C72.585 11 71.7 10.6 71.1 10.883z M69.906 9.443c-0.44 0.52-0.68 1.092-0.108 1.9 C70.449 10.9 70.6 9.9 69.9 9.443z M71.417 12.785c0.072-0.82-1.114-1.357-1.982-0.801 C69.927 12.9 70.6 13 71.4 12.785z M70.048 13.556c-0.407-0.749-0.95-0.983-1.625-0.707 C68.404 13.6 69.2 14.1 70 13.556z M48.679 2.767c0.802-0.228 0.15-1.358-0.123-1.693 C47.808 1.2 48.2 2.6 48.7 2.767z M49.72 3.422c0.84-0.112 0.399-1.14 0.137-1.562C49.533 2.1 49.2 3.1 49.7 3.422z M51.025 2.777c-0.693 0.317-0.891 1.215-0.529 1.952C51.041 4.3 51.5 3.5 51 2.777z M50.881 6 c0.712-0.017 1.174-0.859 0.918-1.429C51.239 4.8 50.7 5.4 50.9 6.032z M50.233 5.248C50.33 4.4 49.2 4.5 48.8 4.9 C48.924 5.3 49.8 5.6 50.2 5.248z M51.397 7.336c1.015 0.1 0.995-0.742 1.18-1.428 C51.741 5.9 51.3 6.3 51.4 7.336z M49.185 6.415c0.341 0.2 1.1 0.4 1.6 0.1 C50.793 5.8 49.2 5.5 49.2 6.415z M49.834 7.199c0.136 0.6 0.8 1.1 1.4 0.8 C51.114 7.4 50.5 6.8 49.8 7.199z M51.653 8.509c0.624 0.3 1.503-0.197 1.438-1.036 C52.514 7.2 51.7 7.8 51.7 8.509z M49.828 8.762c0.222 0.6 0.6 1.1 1.6 1 C51.354 9 50.6 8.4 49.8 8.762z M51.774 10.463c1.039 0 1.513-0.483 1.701-1.295 C52.806 8.7 51.7 9.4 51.8 10.463z M53.441 10.738c-0.853-0.032-1.331 0.315-1.438 1 c0.124 0.1 0.3 0.1 0.4 0.133c-0.262 0.5 0.2 1.6 0.6 1.705c0.818-0.259 0.33-1.275-0.04-1.807 C53.239 11.6 53.5 11.3 53.4 10.738z M6.104 69.309c0.84 0.6 1.753-1.061 1.52-1.634 C6.687 67.1 6.2 68.7 6.1 69.309z M7.323 66.087c-0.861-0.706-1.455 0.638-1.627 1.3 C6.244 67.4 7.5 66.8 7.3 66.087z M5.531 65.41c0.927 0.4 1.968-0.232 2.353-1.239 C6.995 64 5.8 64.3 5.5 65.41z M8.795 62.633c-0.654-0.669-1.88-0.358-2.199 0.4 C7.313 63.4 8.4 63.4 8.8 62.633z M8.62 63.959c-0.879 0.6 0.2 1.7 0.9 1.7 C9.844 65.2 9.4 64.1 8.6 63.959z M9.589 60.97c-0.765-1.109-1.605-0.292-2.432 0.1 C7.934 61.9 8.7 62 9.6 60.97z M10.683 63.92c-0.114-0.505-0.599-1.48-1.268-1.625 C8.695 62.9 9.8 64.7 10.7 63.92z M10.334 60.515c-0.385 0.627-0.471 1.8 0.5 2.1 C11.268 62 11.2 60.8 10.3 60.515z M10.489 59.673c-0.291-0.85-1.536-1.269-2.286-0.454 C8.498 60 9.7 60.2 10.5 59.673z M12.367 61.201c0.421-0.79 0.567-1.593-0.386-2.438 C11.264 59.5 11.4 60.8 12.4 61.201z M9.491 57.332c0.137 1.1 1.8 1.4 2.8 0.5 C11.374 56.8 10.4 56.8 9.5 57.332z M13.317 56.412c-0.19-0.988-1.353-1.383-2.285-0.453 C11.766 56.8 12.5 57 13.3 56.412z M79.946 77.708c-0.424 0.207-0.73 1.6 0 1.7 C80.218 79 80.8 77.9 79.9 77.708z M80.925 76.962c-0.457 0.352-0.069 1.3 0.3 1.5 C81.425 78.1 81.8 77 80.9 76.962z M81.58 75.592c-0.294 0.765-0.017 1.6 0.7 1.9 C82.709 76.7 82.2 76 81.6 75.592z M81.848 74.258c-0.17 0.6 0.5 1.2 1 1.3 C83.094 75 82.6 74.2 81.8 74.258z M81.271 75.098c-0.506-0.271-1.308 0.064-1.392 0.5 C80.29 75.9 81.4 75.9 81.3 75.098z M83.547 74.229c-0.245-0.667-0.306-1.557-1.303-1.316 C82.197 73.9 82.7 74.3 83.5 74.229z M81.669 73.752c-0.453-0.257-1.225 0.05-1.545 0.3 C80.229 74.9 81.8 74.5 81.7 73.752z M80.699 73.189c0.711 0.3 1.253-0.361 1.354-0.912 C81.391 72 80.8 72.6 80.7 73.189z M82.394 71.722c0.142 0.7 1 1.2 1.5 0.9 C83.908 71.8 83 71.4 82.4 71.722z M82.011 70.449c-0.971-0.005-1.295 0.523-1.459 1.2 C81.306 71.9 82 71.2 82 70.449z M82.339 69.765c0.057 1 1.2 1.7 1.8 1.1 C83.889 70.1 83.4 69.6 82.3 69.765z M83.975 69.343c-0.056-1-0.915-1.366-1.526-0.902 C82.619 69.1 83.1 69.5 84 69.343z M22.542 75.59c0.056-0.5-0.021-2.019-0.951-1.735 C21.266 74.3 21.7 75.9 22.5 75.59z M22.196 72.555c-0.282 0.6 0.6 1.4 1.1 1.4 C23.309 73.4 23.1 72.1 22.2 72.555z M23.884 72.362c0.013-1.043-0.956-1.514-1.753-1.577 C22.242 71.7 23 72.5 23.9 72.362z M21.564 72.422c-0.783-0.127-2.121 0.626-2.248 1.3 C20.071 73.7 21.8 73.7 21.6 72.422z M23.487 70.084c-0.109-0.72-1.097-1.253-1.804-0.819 C21.851 70 22.8 70.2 23.5 70.084z M21.543 70.442c-0.669-0.005-1.315 0.774-1.151 1.3 C20.991 71.8 22.2 71.2 21.5 70.442z M23.421 68.314c-0.615-0.555-1.16-1.441-2.059-0.653 C21.867 68.7 22.6 68.8 23.4 68.314z M21.224 68.839c-0.607-0.021-1.236 0.713-1.445 1.1 C20.357 70.8 21.7 69.5 21.2 68.839z M19.917 68.782c0.918-0.035 1.098-1.051 0.902-1.675 C19.975 67.2 19.7 68.2 19.9 68.782z M22.936 66.457c-0.468-0.863-1.63-0.773-2.064-0.106 C21.388 67 22.5 67 22.9 66.457z M19.46 65.244c-1.005 0.52-1.053 1.24-0.865 2 C19.519 67.1 19.9 66 19.5 65.244z M22.239 64.555c-0.699-0.678-1.496-0.894-2.485-0.195 C20.37 65.4 21.9 65.4 22.2 64.555z M18.797 63.17c0.561 0.6 1.2 0.7 2.1 0.1 C20.262 62.3 19.2 62.4 18.8 63.17z M5.976 51.208c-0.068 0.597-0.184 2 0.9 1.7 C7.081 52.2 6.5 51.3 6 51.208z M7.357 52.06c-0.124 0.6 0.6 1.8 1.3 1.1 C8.697 52.5 7.9 51.9 7.4 52.06z M10.213 52.546c0.015-0.561-0.666-1.136-1.045-1.325 C8.399 51.8 9.6 53 10.2 52.546z M12.056 52.45C12 51.6 11 51.3 10.4 51.6 C10.415 52.5 11.4 52.6 12.1 52.45z M13.524 51.197c-0.487-0.923-1.153-0.962-1.864-0.784 C11.79 51.3 12.8 51.6 13.5 51.197z M5.495 52.743c-0.02-0.875-0.378-1.179-0.819-1.342 C4.519 52.1 5 52.8 5.5 52.743z M13.219 49.72c0.472 0.7 1.1 0.7 1.8 0.2 C14.551 49.1 13.9 49.2 13.2 49.72z M3.673 52.185c-0.175-0.648-1.378-0.656-1.788-0.389 C2.264 52.2 3.3 53.1 3.7 52.185z M2.829 54.01c0.75 0.4 1.361-0.211 1.629-0.86C3.741 52.9 3 53.2 2.8 54.01z M4.122 54.567c0.706 0.2 1.585-0.512 1.466-1.332C4.833 53.1 4.3 53.9 4.1 54.567z M5.775 55.2 c0.754-0.346 1.784-0.496 1.414-1.632C5.999 53.6 5.6 54.2 5.8 55.206z M7.676 55.493c0.979-0.09 1.354-1.191 0.913-1.854 C7.806 53.9 7.3 54.9 7.7 55.493z M10.861 53.4c-1.192 0.158-1.844 1.529-1.16 2.2 C10.6 55.2 11.1 54.6 10.9 53.4z M11.42 54.844c1.158-0.154 1.507-1.187 0.913-1.852 C11.524 53.3 11.2 53.9 11.4 54.844z M17.853 49.03c-0.798-0.55-2.07-0.846-2.856 0.1 C15.728 50 17 49.8 17.9 49.03z M17.113 47.335c0.546 0.7 1.6 1.2 2.3 0.6 C19.104 47 17.8 46.7 17.1 47.335z M18.762 51.251c0.55-0.363 0.538-1.59-0.095-2.096 C17.518 49.4 18.1 50.9 18.8 51.251z M20.966 46.677c-0.243-1.428-1.434-1.009-2.437-0.956 C18.936 46.8 19.7 47.3 21 46.677z M20.697 50.049c0.117-0.544 0.085-1.714-0.502-2.158 C19.228 48.1 19.5 50.4 20.7 50.049z M21.467 48.835c0.684-0.425 1.188-1.572 0.432-2.265 C21.238 47 20.6 48.1 21.5 48.835z M20.408 44.343c-0.058 0.9 1.1 1.7 2 1.5 C22.531 44.9 21.5 43.9 20.4 44.343z M24.297 45.605c-1.028 0.386-1.493 1.724-0.726 2.6 C24.338 47.6 24.8 46.9 24.3 45.605z M25.005 44.798c-0.397-1.412-1.312-1.816-2.488-1.713 C22.164 44.2 23.6 45.3 25 44.798z M26.865 45.167c-1.128 0.299-1.593 0.938-1.302 2 C26.654 46.8 27.3 46.2 26.9 45.167z M10.233 39.537c0.844 0.3 1.5 0.2 1.728-0.669 C11.102 38.5 10.5 38.7 10.2 39.537z M13.012 38.679c-0.091 0.9 0.1 1.5 1 1.5 C14.173 39.3 13.8 38.8 13 38.679z M27.518 50.707c-1.129 0.299-1.593 0.938-1.302 2 C27.307 52.4 27.9 51.8 27.5 50.707z M25.118 43.422c0.332 1.2 1 1.6 2 1.5 C27.404 43.9 26.4 42.9 25.1 43.422z M17.741 65.384c0.987-0.076 0.706-1.876 0.178-2.177 C16.855 63.3 17.5 64.9 17.7 65.384z M16.74 61.631c-1.091-0.021-0.733 1.371-0.482 2 C16.722 63.3 17.3 62.1 16.7 61.631z M16.01 59.818c-0.776 0.421-1.54 1.331-1.059 2.4 C15.896 61.9 16.3 60.8 16 59.818z M20.158 61.497c-0.422-0.604-2.109-0.763-2.842-0.283 C17.649 62.6 19.4 61.9 20.2 61.497z M15.777 58.085c-0.908-0.12-1.663 0.86-1.45 1.6 C15.084 59.5 15.9 58.9 15.8 58.085z M18.19 59.996c-0.069-0.597-1.071-1.092-1.743-0.787 C16.162 60.2 17.6 60.4 18.2 59.996z M15.379 56.324c-1.26-0.391-1.411 0.747-1.781 1.6 C14.667 58 15.4 57.6 15.4 56.324z M18.01 57.931c-0.394-0.318-1.358-0.774-1.961-0.481 C15.853 58.3 17.8 59 18 57.931z M17.34 56.807c-0.063-0.729-0.789-1.61-1.664-1.283 C15.761 56.2 16.4 57.2 17.3 56.807z M15.286 54.783c-0.739-0.478-1.95-0.046-2.033 1 C13.941 56.2 15 55.6 15.3 54.783z M15.881 53.182c-0.111 1 0.8 1.9 1.8 1.6 C17.5 54 17.1 53.3 15.9 53.182z M13.099 53.587c0.756 0.7 2.3 0 2.417-1.312 C14.205 52 13.5 52.6 13.1 53.587z M16.583 50.918c-0.222 1 0.1 1.7 1.1 1.9 C17.833 51.8 17.6 51 16.6 50.918z M15.946 50.646c-0.745-0.645-1.879-0.245-2.033 1 C14.992 51.9 15.7 51.5 15.9 50.646z M11.146 37.878c0.576 0.4 1.5 0.7 2 0.1 C12.73 37.2 11.6 37.3 11.1 37.878z M13.792 36.701c-0.18-1.218-1.2-0.884-2.054-0.858 C12.064 36.8 12.7 37.2 13.8 36.701z M14.096 36.936c-0.109 0.46-0.104 1.5 0.4 1.8 C15.309 38.6 15.1 36.7 14.1 36.936z M13.438 34.953c-0.211 0.9 1.5 1.2 1.9 0.8 C15.511 34.7 13.9 34.8 13.4 34.953z M14.981 33.978c0.114 0.5 1 1.3 1.6 1 C16.918 34 15.6 33.9 15 33.978z M16.594 33.211c-0.03 0.9 0.8 1.6 1.8 1.6 C18.256 34 17.7 33.1 16.6 33.211z M15.743 38.037c0.658-0.205 1.276-1.66 1.056-2.447 C15.452 35.5 15.6 37.3 15.7 38.037z M20.021 35.108c0.363-0.773-0.296-1.722-1.046-1.751 C18.916 34.1 19.2 35 20 35.108z M17.637 36.712c0.55 0.1 1.275-0.643 1.194-1.326 C17.996 34.8 17.5 36.1 17.6 36.712z M20.796 33.221c-0.414 0.914-0.256 1.6 0.9 2 C22.407 34.2 21.4 33.8 20.8 33.221z M19.527 37.136c0.396-0.26 1.075-0.988 0.984-1.606 C19.776 35.1 18.6 36.6 19.5 37.136z M22.332 35.743c-0.661-0.128-1.683 0.172-1.614 1.1 C21.386 37 22.4 36.6 22.3 35.743z M22.757 33.505c-0.558 0.496-0.358 1.6 0.3 2.1 C23.736 35.1 23.7 33.9 22.8 33.505z M22.397 37.702c0.812 0.1 1.546-0.027 1.964-1.115 C23.508 36.2 22.4 36.7 22.4 37.702z M25.271 36.52c0.268-0.486 0.347-0.91 0.292-1.289 c0.678 0.8 1.8 0.7 2.6 0.278c-0.674-0.875-1.851-1.185-2.679-0.617c-0.129-0.33-0.365-0.625-0.688-0.891 C23.91 34.5 24.1 36 25.3 36.52z M26.179 37.851c-0.862-0.491-1.525-0.379-1.962 0.4 C25.068 38.7 25.8 38.7 26.2 37.851z M11.983 49.771c0.305-0.464 0.434-1.216-0.063-1.562 C11.391 48.6 11.5 49.5 12 49.771z M11.003 47.945c-0.933-0.141-0.916 0.681-1.087 1.3 C10.685 49.2 11.1 48.9 11 47.945z M12.804 47.514c0.042-0.649-1.413-0.93-1.439-0.128 C11.678 47.6 12.4 47.8 12.8 47.514z M9.315 47.813c0.612 0.4 1.177-0.819 0.989-1.21 C9.624 46.3 9.3 47.4 9.3 47.813z M8.943 46.467c0.386 0 1.21-0.444 1.08-0.959 C9.389 45.1 9 46 8.9 46.467z M10.306 44.109c-0.63-0.038-1.438 0.225-1.542 1 C9.438 45.3 10.1 44.8 10.3 44.109z M10.747 45.329c-0.375 1 1 1.2 1.6 1.3 C12.303 46.1 11.4 45.3 10.7 45.329z M9.051 43.405c0.516 0.2 1.3 0.2 1.518-0.376 C10.083 42.6 9.2 42.9 9.1 43.405z M11.758 45.187c0.202-0.379-0.187-1.077-0.707-1.169 C10.466 44.5 11.3 45.2 11.8 45.187z M11.049 41.831c-0.583-0.741-1.135-0.131-1.692 0.2 C9.936 42.5 10.5 42.6 11 41.831z M11.205 42.819c-0.476 0.4 0.4 1.6 1 1.1 C12.062 43.5 11.7 42.9 11.2 42.819z M11.767 41.588c-0.241 0.455-0.249 1.3 0.5 1.4 C12.485 42.6 12.4 41.7 11.8 41.588z M11.239 40.721c-0.242-0.58-1.129-0.816-1.617-0.214 C9.862 41 10.7 41.1 11.2 40.721z M13.001 41.868c0.258-0.572 0.325-1.139-0.38-1.686 C12.153 40.7 12.3 41.6 13 41.868z M27.135 82.21c0.751-0.025 1.417-0.969 1.058-1.745 C27.407 80.5 27.1 81.5 27.1 82.21z M29.166 82.171c0.488-0.701 1.323-1.374 0.4-2.188 C28.529 80.6 28.5 81.4 29.2 82.171z M28.116 78.028c0.058 0.6 0.9 1.2 1.3 1.3 C30.233 78.7 28.7 77.4 28.1 78.028z M31.22 79.229c-0.549 0.141-1.249 1.691-0.381 2 C31.211 80.9 32.1 79.6 31.2 79.229z M32.5 80.473c0.372-0.468 1.039-1.633 0.052-1.883 C31.928 78.9 32.1 80.1 32.5 80.473z M34.022 79.54c0.693-0.821 0.23-1.831-0.363-2.401 C33.125 78 33.2 79.1 34 79.54z M32.137 78.071c-0.541-0.613-2.099-0.889-2.629-0.449 C30.098 78.1 31.5 79.3 32.1 78.071z M35.198 77.466c0.384-0.643-0.052-1.712-0.899-1.83 C33.944 76.3 34.6 77.1 35.2 77.466z M33.417 76.481c-0.529-0.441-1.555-0.243-1.764 0.3 C32.055 77.2 33.4 77.5 33.4 76.481z M36.305 76.016c-0.126-0.844 0.021-1.905-1.211-1.865 C34.791 75.3 35.3 75.9 36.3 76.016z M34.212 74.996c-0.469-0.413-1.451-0.241-1.885-0.053 C32.24 76 34.2 75.8 34.2 74.996z M35.025 73.355c-0.706-0.513-1.578 0.102-1.816 0.7 C33.963 74.7 34.8 74 35 73.355z M35.562 72.785c0 0.8 0.9 1.6 1.6 1.4 C37.328 73.2 36.3 72.5 35.6 72.785z M33.417 72.232c0.822 0.5 1.86-0.116 2.006-1.036 C34.283 71 33.8 71.5 33.4 72.232z M35.354 68.984c-0.963-0.139-1.337 0.455-1.418 1.4 C34.842 70.5 35.3 70 35.4 68.984z M55.591 86.642c0.614 0.5 1.378-0.729 1.226-1.176 C56.128 85 55.7 86.2 55.6 86.642z M56.655 84.247c-0.624-0.573-1.133 0.423-1.29 0.9 C55.777 85.2 56.7 84.8 56.7 84.247z M55.323 83.657c0.688 0.3 1.505-0.093 1.84-0.842 C56.494 82.7 55.6 82.8 55.3 83.657z M56.233 81.895c0.53 0.3 1.4 0.4 1.688-0.209 C57.452 81.1 56.5 81.3 56.2 81.895z M57.731 82.686c-0.695 0.5 0.1 1.3 0.6 1.4 C58.609 83.7 58.3 82.9 57.7 82.686z M56.74 80.463c0.558 0.6 1.2 0.7 1.854-0.007 C58.061 79.6 57.4 80.2 56.7 80.463z M58.405 81.455c-0.571 0.4 0.2 1.8 0.9 1.3 C59.234 82.4 58.9 81.6 58.4 81.455z M59.18 80.143c-0.319 0.459-0.433 1.3 0.3 1.6 C59.828 81.3 59.9 80.4 59.2 80.143z M57.617 79.067c0.19 0.6 1.1 0.8 1.7 0.4 C59.148 78.9 58.2 78.5 57.6 79.067z M60.695 80.75c0.354-0.583 0.499-1.186-0.19-1.868 C59.931 79.4 60 80.4 60.7 80.75z M58.675 77.688c0.059 0.8 1.3 1.2 2.1 0.5 C60.129 77.3 59.4 77.3 58.7 77.688z M59.905 76.711c0.521 0.7 1.1 0.8 1.7 0.4 C61.519 76.4 60.7 76 59.9 76.711z M61.611 79.664c0.729-0.179 1.187-1.239 0.676-1.926 C61.535 78 61.4 79 61.6 79.664z M63.53 76.985c-0.878 0.855-0.709 1.6 0.1 2.2 C63.923 78.4 64.6 77.6 63.5 76.985z M61.71 75.37c0.185 0.6 1.1 1 1.6 1 C63.91 75.5 62.2 74.7 61.7 75.37z M65.034 77.945c0.29-0.431 0.943-1.855-0.04-2.039 C64.485 76.2 64.1 77.8 65 77.945z M66.503 76.859c0.268-0.533 0.681-1.812-0.337-1.854 C65.617 75.4 66.1 76.6 66.5 76.859z M67.8 75.634c0.509-0.946-0.152-1.839-0.851-2.274 C66.599 74.3 66.9 75.3 67.8 75.634z M65.652 74.585c-0.655-0.489-2.237-0.438-2.666 0.1 C63.668 75.1 65.3 75.9 65.7 74.585z M67.266 71.756c-0.202 0.8 0.6 1.4 1.3 1.6 C68.766 72.7 68.1 71.7 67.3 71.756z M66.577 72.766c-0.609-0.322-1.571 0.082-1.669 0.6 C65.401 73.8 66.8 73.7 66.6 72.766z M67.737 70.139c-0.053 1.2 0.6 1.6 1.6 1.6 C69.01 70.9 68.9 69.8 67.7 70.139z M67.049 71.148c-0.545-0.309-1.47 0.063-1.855 0.3 C65.324 72.5 67.2 72 67 71.148z M65.882 70.477c0.856 0.4 1.506-0.439 1.624-1.102 C66.71 69 66 69.8 65.9 70.477z M67.913 68.707c0.173 0.8 1.2 1.4 1.8 1.1 C69.732 68.8 68.6 68.3 67.9 68.707z M65.7 68.607c0.907 0.3 1.797-0.496 1.749-1.427 C66.283 67.2 65.9 67.8 65.7 68.607z M65.83 66.708c0.9-0.119 1.243-0.697 1.097-1.678 C65.955 65.1 65.7 65.8 65.8 66.708z M16.753 24.729c-0.51 0.6 0.6 1.4 1.1 1.3 C18.338 25.4 17.2 24.8 16.8 24.729z M18.258 24.632c-0.111 0.4 0.2 1.4 0.8 1.4 C19.654 25.4 18.7 24.8 18.3 24.632z M19.731 24.716c-0.384 0.65-0.036 1.5 0.7 1.9 C20.616 26 20.6 25 19.7 24.716z M17.2 27.876c0.557 0.1 1.583-0.697 1.736-1.355 C18 25.9 17.4 27.3 17.2 27.876z M19.098 27.666c0.356 0.3 1.2 0 1.392-0.489 C20.1 26.5 19.2 27.2 19.1 27.666z M20.574 28.511c0.704-0.042 1.6 0.2 1.625-0.858 C21.244 27.3 20.8 27.7 20.6 28.511z M21.567 26.867c0.375-0.356 0.305-1.175 0.181-1.545 C20.895 25.2 20.9 26.8 21.6 26.867z M22.38 26.108c-0.527 0.578-0.016 1.3 0.5 1.5 C23.333 27.1 22.9 26.4 22.4 26.108z M21.992 29.325c0.804 0.2 1.442-0.525 1.297-1.188 C22.598 28.1 21.9 28.7 22 29.325z M34.817 15.993c-0.05 0.386-0.012 1.6 0.7 1.4 C35.785 17 35.5 15.8 34.8 15.993z M35.041 18.344c0.226-0.467-0.472-1.081-0.847-1.132 C34.193 17.7 34.3 18.7 35 18.344z M33.733 18.468c-0.025 0.8 0.7 1.2 1.3 1.2 C34.994 19 34.4 18.4 33.7 18.468z M35.527 18.455c0.604 0.1 1.649-0.453 1.756-0.958 C36.699 17.5 35.4 17.5 35.5 18.455z M36.423 19.002c-0.462-0.097-1.374 0.398-0.909 1 C36.031 20 36.5 19.4 36.4 19.002z M36.915 20.753c-0.987-0.167-1.645 0.17-1.729 1.4 C36.34 22.6 36.5 21.5 36.9 20.753z M32.814 20.526c0.352 0.3 1.2 0.8 1.8 0.5 C34.838 20.2 33.1 19.5 32.8 20.526z M34.872 22.872c-0.044-0.668-0.594-1.576-1.487-1.27 C33.41 22.3 34 23.1 34.9 22.872z M37.14 22.712c-0.621-0.41-1.676 0.073-1.939 0.9 C35.866 24.1 37 23.7 37.1 22.712z M32.998 23.435c0.106 0.8 0.4 1.5 1.6 1.6 C34.723 24.1 33.9 23.2 33 23.435z M37.18 24.793c-0.669-0.727-2.102-0.109-2.309 1.1 C36.079 26.2 36.8 25.7 37.2 24.793z M33.817 27.114c0.254-0.956-0.021-1.566-0.899-1.784 C32.692 26.3 32.9 26.9 33.8 27.114z M34.396 27.396c0.663 0.6 1.7 0.3 1.938-0.866 C35.341 26.3 34.7 26.6 34.4 27.396z M31.976 71.768c0.371-0.843-1.232-1.401-1.711-1.101 C29.907 71.6 31.5 71.8 32 71.768z M30.287 72.445c-0.023-0.502-0.753-1.498-1.399-1.255 C28.391 72.1 29.7 72.4 30.3 72.445z M27.078 70.994c0.005 0.8 0.4 1.8 1.5 1.9 C28.761 72 28 71.2 27.1 70.994z M28.798 70.535c1.302 0.3 1.44-1.434 1.479-2.208 C29.596 68.4 28.7 69.7 28.8 70.535z M26.258 72.33c0.19-0.696 0.046-1.679-0.708-1.906 C25.054 71.1 25.5 72.2 26.3 72.33z M28.18 69.283c-0.521-0.205-1.368 0.399-1.412 1.1 C27.488 71.1 28.3 69.9 28.2 69.283z M23.929 69.978c-0.874 0.863-0.005 1.5 0.5 2.2 C25.02 71.3 25 70.6 23.9 69.978z M26.404 68.525c-0.436 0.184-1.233 0.774-1.257 1.4 C25.791 70.5 27.2 69.2 26.4 68.525z M25.185 68.581c-0.627-0.268-1.67-0.06-1.783 0.8 C24.025 69.6 25.1 69.5 25.2 68.581z M89.697 49.113c0.619 0.1 1.325-0.951 0.587-1.545 C89.698 47.9 89.5 48.4 89.7 49.113z M90.93 48.21c-0.233 0.8 0.8 1.3 1.3 0.7 C92.027 48.2 91.6 47.9 90.9 48.21z M86.868 57.311c0.264-0.212 0.947-0.969 0.372-1.274 C86.875 56.1 86.3 57.1 86.9 57.311z M88.143 55.705c-0.423 0.157-0.354 0.959-0.15 1.2 C88.262 56.6 88.8 55.9 88.1 55.705z M88.95 54.834c-0.397 0.504-0.394 1.2 0.1 1.6 C89.536 55.9 89.3 55.2 89 54.834z M87.906 55.343c-0.313-0.43-1.305-0.705-1.675-0.454 C86.582 55.3 87.4 56.1 87.9 55.343z M89.927 55.142c0.289-0.393 0.073-1.112-0.468-1.241 C89.185 54.3 89.5 54.9 89.9 55.142z M88.834 54.394c-0.315-0.318-0.991-0.254-1.16 0.1 C87.904 54.8 88.8 55 88.8 54.394z M90.734 54.271c-0.028-0.555 0.133-1.232-0.668-1.284 C89.796 53.7 90.1 54.1 90.7 54.271z M89.442 53.48c-0.278-0.297-0.925-0.246-1.218-0.15 C88.103 54 89.4 54 89.4 53.48z M90.071 52.469c-0.425-0.376-1.028-0.033-1.223 0.4 C89.301 53.3 89.9 52.9 90.1 52.469z M91.385 53.159c0.187-0.631-0.407-1.138-0.931-1.026 C90.401 52.7 90.9 53.2 91.4 53.159z M89.1 51.641c0.501 0.4 1.2 0 1.364-0.547 C89.74 50.9 89.4 51.2 89.1 51.641z M91.955 51.927c-0.012-0.651-0.287-1.132-1.088-1.269 C90.671 51.4 91.4 52.2 92 51.927z M90.557 49.657c-0.614-0.149-0.895 0.211-1.007 0.8 C90.132 50.6 90.5 50.3 90.6 49.657z M90.977 49.641c-0.036 0.6 0.3 0.9 0.9 1 C92.097 49.9 91.5 49.4 91 49.641z M90.882 46.535c0.027 0.5 1.4 1.5 1.8 0.8 C92.443 46.9 91.4 45.7 90.9 46.535z M92.314 45.561c-0.373-0.443-1.353-1.304-1.782-0.415 C90.698 45.8 91.9 45.8 92.3 45.561z M91.722 43.934c-0.647-0.818-1.697-0.574-2.356-0.121 C90.051 44.5 91.1 44.6 91.7 43.934z M89.02 47.849c0.597-0.462 1.939-1.563 0.938-2.409 C89.27 45.8 88.7 47.3 89 47.849z M89.977 42.414c-0.539-0.49-1.642-0.284-1.917 0.5 C88.661 43.4 89.5 43 90 42.414z M88.614 45.644c0.538-0.288 1.027-1.537 0.078-1.729 C88.171 44.3 88.2 45.3 88.6 45.644z M88.811 41.081c-0.828-0.044-1.811-0.39-2.012 0.8 C87.871 42.4 88.5 42 88.8 41.081z M87.434 42.871c-0.484 0.367-0.511 1.332-0.415 1.8 C87.995 44.9 88.2 43.1 87.4 42.871z M86.029 41.78c-0.625 0.571-0.21 1.5 0.4 1.9 C87.075 43 86.6 42.1 86 41.78z M87.262 39.944c-0.908-0.376-1.754 0.424-1.671 1.2 C86.389 41.3 87.3 40.7 87.3 39.944z M84.395 43.295c0.633-0.685 0.25-1.79-0.598-2.106 C83.345 42.2 83.8 42.8 84.4 43.295z M83.467 40.316c1.13 0.4 2.345-0.497 2.054-1.413 C84.551 38.8 83.8 39.2 83.5 40.316z M81.975 39.995c0.837 0.1 1.395-0.261 1.67-1.217 C82.548 38.4 81.8 39.1 82 39.995z M81.315 40.576c-0.742 0.8 0.7 1.6 1.2 1.8 C83.269 41.7 81.9 40.5 81.3 40.576z M80.267 41.919c0.187-0.507-0.119-1.797-0.86-1.825 C78.545 40.8 79.7 41.6 80.3 41.919z M78.372 41.656c0.565-0.801 0.204-1.927-0.676-2.512 C77.359 40 77.3 41.1 78.4 41.656z M79.591 39.408c1.146 0.9 2.024-0.82 2.386-1.568 C81.268 37.6 79.9 38.6 79.6 39.408z M76.328 40.127c0.478-0.611 0.746-1.643 0.095-2.183 C75.643 38.4 75.7 39.7 76.3 40.127z M77.652 38.396c0.426 1 1.7 0.2 1.85-0.485 C79.072 37.5 78 37.7 77.7 38.396z M97.632 38.381c-0.242-0.888-1.84-0.314-2.023 0.2 C95.917 39.5 97.2 38.7 97.6 38.381z M96.748 39.97c-0.335-0.375-1.53-0.69-1.879-0.095 C95.041 40.9 96.3 40.3 96.7 39.97z M95.701 41.409c-0.411-0.815-1.496-1.013-2.361-0.547 C93.861 41.5 94.8 42 95.7 41.409z M94.386 39.423c1.229-0.553 0.215-2.02-0.242-2.646 C93.665 37.3 93.8 38.8 94.4 39.423z M93.546 42.416c-0.292-0.661-1.023-1.333-1.753-1.036 C91.845 42.2 92.9 42.7 93.5 42.416z M93.117 38.84c-0.533 0.167-0.811 1.17-0.412 1.7 C93.694 40.6 93.6 39.3 93.1 38.84z M90.253 42.053c-0.135 1.2 0.9 1.2 1.8 1.3 C91.942 42.4 91.5 41.8 90.3 42.053z M91.26 39.369c-0.223 0.416-0.47 1.376-0.096 1.9 C92.012 41.3 92.3 39.4 91.3 39.369z M89.468 41.923c0.64-0.201 1.393-0.952 0.881-1.744 C89.691 40.4 89 41.2 89.5 41.923z"/>
	</g>
</g>
</svg>
